<?xml version="1.0" encoding="UTF-8" standalone="no"?>
<!-- Created with Inkscape (http://www.inkscape.org/) -->

<svg
   xmlns:dc="http://purl.org/dc/elements/1.1/"
   xmlns:cc="http://creativecommons.org/ns#"
   xmlns:rdf="http://www.w3.org/1999/02/22-rdf-syntax-ns#"
   xmlns:svg="http://www.w3.org/2000/svg"
   xmlns="http://www.w3.org/2000/svg"
   xmlns:sodipodi="http://sodipodi.sourceforge.net/DTD/sodipodi-0.dtd"
   xmlns:inkscape="http://www.inkscape.org/namespaces/inkscape"
   width="1052.3622"
   height="744.09448"
   id="svg2"
   version="1.1"
   inkscape:version="0.48.3.1 r9886"
   sodipodi:docname="stubnitz.svg"
   inkscape:export-filename="/home/parag0n/emw/stubnitz.png"
   inkscape:export-xdpi="90"
   inkscape:export-ydpi="90">
  <defs
     id="defs4" />
  <sodipodi:namedview
     id="base"
     pagecolor="#ffffff"
     bordercolor="#666666"
     borderopacity="1.0"
     inkscape:pageopacity="0.0"
     inkscape:pageshadow="2"
     inkscape:zoom="1.4142136"
     inkscape:cx="191.75227"
     inkscape:cy="639.31016"
     inkscape:document-units="px"
     inkscape:current-layer="layer1"
     showgrid="true"
     fit-margin-top="0"
     fit-margin-left="0"
     fit-margin-right="0"
     fit-margin-bottom="0"
     inkscape:window-width="703"
     inkscape:window-height="628"
     inkscape:window-x="681"
     inkscape:window-y="276"
     inkscape:window-maximized="0"
     units="mm">
    <inkscape:grid
       type="xygrid"
       id="grid3095"
       empspacing="10"
       visible="true"
       enabled="true"
       snapvisiblegridlinesonly="true"
       units="mm"
       spacingx="1mm"
       spacingy="1mm" />
  </sodipodi:namedview>
  <metadata
     id="metadata7">
    <rdf:RDF>
      <cc:Work
         rdf:about="">
        <dc:format>image/svg+xml</dc:format>
        <dc:type
           rdf:resource="http://purl.org/dc/dcmitype/StillImage" />
        <dc:title />
      </cc:Work>
    </rdf:RDF>
  </metadata>
  <g
     inkscape:label="Layer 1"
     inkscape:groupmode="layer"
     id="layer1"
     transform="translate(-1.2857198,-113.98193)">
    <g
       id="g3954"
       transform="matrix(0,1,-1,0,371.12257,119.85443)">
      <path
         sodipodi:nodetypes="csssscccccssccccccssssscccccssssssccccccccscccccccccsccsssccccccssccccccccssssssssscssssscccccssssssssccccsscccssssccccccccssscssscsccscssccsscccc"
         inkscape:connector-curvature="0"
         id="path3000"
         d="m 0.0795071,326.50347 c 0.0116,-0.61539 0.44773331,-2.00729 8.6796534,-2.20793 4.8641295,-0.11855 16.4192925,0.36995 25.8942525,0.54311 11.78011,0.21529 17.494505,-0.19595 17.499335,-0.45215 0.004,-0.23027 1.10779,-0.3586 2.86345,-0.32547 l 2.85629,0.0539 0.323908,-11.20349 0.23531,-12.47396 -2.11991,-1.22309 c -1.16371,-0.66808 -2.11383,-1.41272 -2.1117,-1.65823 0.002,-0.24551 -0.15225,-0.44933 -0.34862,-0.45304 -0.21875,-0.004 -0.32488,-1.71154 -0.2739,-4.4139 0.0458,-2.42582 -0.006,-5.40019 -0.1097,-6.60959 l -0.18169,-2.20222 -3.1687,-0.0598 -3.15754,-0.0596 0.0236,-1.24963 0.0236,-1.24963 -3.03481,-0.0572 c -2.4765,-0.0467 -3.03285,-0.16138 -3.0245,-0.60396 0.008,-0.40023 -0.22489,-0.48214 -0.8867,-0.32925 -0.7442,0.17193 -0.89427,0.0723 -0.88248,-0.55239 0.014,-0.74392 -0.0856,-0.74943 -8.22006,-0.90287 l -8.23415,-0.15533 0.14356,-1.69382 c 0.11738,-1.41199 0.16103,-1.64449 0.95911,-1.73424 l 21.91328,-10.24573 c 0.11429,-0.0936 0.59671,-0.21508 0.81151,-0.34004 0.50996,-0.26098 0.96451,-0.81656 0.62337,-1.17316 -0.1308,-0.13673 -2.12031,-0.36591 -4.41033,-0.50733 -3.86638,-0.23877 -4.15738,-0.30801 -4.14487,-0.9711 0.009,-0.48775 0.29716,-0.75067 0.90859,-0.83112 0.60887,-0.0801 -0.22589,-0.4657 -2.61146,-1.19888 -1.92894,-0.59285 -3.5738,-1.14026 -3.64911,-1.21846 -0.26558,-0.2758 -2.75528,-16.75849 -2.55995,-16.94659 0.10891,-0.10488 2.91649,-0.98763 6.24287,-1.96941 l 6.04961,-1.78331 0.14294,-1.66035 0.14293,-1.66035 -1.8456,0.21074 -1.83444,0.21094 0.13115,-1.03553 c 0.12823,-0.96192 0.24753,-1.02757 1.74918,-1.01617 0.88385,0.007 2.53144,-0.002 3.6613,-0.0202 l 2.05423,-0.0282 0.0438,-2.32074 0.0438,-2.32074 -1.9637,-0.037 -1.9637,-0.037 0.0678,-3.59268 0.0676,-3.58152 -1.20648,-0.53618 c -0.66403,-0.29228 -1.25962,-0.66978 -1.32352,-0.83975 -0.0639,-0.16996 -4.97929,-3.72452 -10.92312,-7.89623 l -10.80628,-7.58151 -7.531229,-0.14206 c -7.0375098,-0.13276 -7.5304698,-0.18341 -7.5190398,-0.7892 0.0115,-0.60924 1.07072,-1.91648 17.6078288,-2.17908 9.67757,-0.15368 18.53372,-0.35058 19.68585,-0.44343 l 2.10159,-0.17242 -0.005,-5.58085 0.006,-6.8418 5.28818,-0.46947 c 2.90817,-0.26316 5.36032,-0.5499 5.44754,-0.63389 0.0872,-0.084 0.0867,-3.16979 -0.005,-6.85317 -0.0914,-3.68338 -0.0895,-7.04571 0.007,-7.47797 0.12548,-0.56149 1.27349,-1.37713 4.01623,-2.85968 l 3.83413,-2.08182 -0.0219,-5.3467 c -0.0146,-2.94435 -0.0962,-7.28795 -0.17519,-9.64672 l -0.14233,-4.28865 -3.70236,-0.17029 -3.70236,-0.1703 0.20062,-1.75971 c 0.22791,-1.97908 1.48117,-3.82677 3.26088,-4.82716 1.01516,-0.57063 1.08689,-0.74356 0.92059,-2.05865 -0.3601,-2.84746 -1.32471,-15.45913 -1.43328,-18.68883 -0.097,-2.88709 -0.0437,-3.30459 0.46397,-3.29501 1.34618,0.0254 19.18843,10.56244 24.20717,14.29673 5.683638,4.22901 9.069218,8.85265 10.217488,13.94354 0.74716,3.31252 0.81454,9.64394 0.91271,82.96846 0.0195,14.53692 0.0609,33.262 0.0968,41.61138 0.0359,8.34937 0.0675,24.42233 0.0629,35.71754 -0.005,11.29521 0.0255,21.26064 0.0734,22.14552 0.0478,0.88489 -0.0217,6.55305 -0.15952,12.59817 -0.26328,11.54481 -1.586688,11.61945 -3.141908,11.60708 -0.41641,-0.003 -0.44788,-0.79651 -0.1916,-4.63558 0.39694,-5.94592 1.892088,-5.67049 -3.687222,-5.77574 -4.206748,-0.0794 -4.220658,-0.0771 -4.883138,0.89009 -0.67558,0.98623 -0.89092,2.73111 -1.74134,13.6175 l -0.35197,4.4579 -6.46896,2.1214 -6.46876,2.11025 -4.16002,-0.16777 c -3.64823,-0.14813 -4.30024,-0.2636 -5.2164,-0.96898 -0.89971,-0.69273 -1.2324,-0.7676 -2.35715,-0.47976 -2.07491,0.531 -2.70373,0.14197 -2.66958,-1.66876 0.0266,-1.41042 0.12697,-1.57909 1.19763,-1.95297 3.6492,-1.2743 3.50346,-1.11929 3.55266,-3.72784 0.0442,-2.34462 0.0368,-2.36444 -0.85218,-2.15906 -1.32215,0.30546 -2.67565,-0.16315 -2.66136,-0.92079 0.007,-0.35509 0.21455,-0.72281 0.46188,-0.81723 0.24733,-0.0944 -0.39371,-0.19283 -1.42436,-0.22777 l -1.87381,-0.0688 0.0977,-5.17703 0.0976,-5.17703 0.8926,0.0168 c 0.87274,0.0165 0.89371,-0.0427 0.9431,-2.66093 l 0.0505,-2.67778 2.67778,0.0505 2.67777,0.0505 0.0261,-1.38352 c 0.0231,-1.22579 -0.10614,-1.4405 -1.12522,-1.88517 -1.37712,-0.60091 -4.13306,-3.37201 -4.11857,-4.14043 0.009,-0.4782 -1.52043,-0.57559 -12.48596,-0.78244 l -12.49628,-0.23573 -0.0472,2.49926 -0.0471,2.49925 -1.07111,-0.0202 -1.07111,-0.0202 0.0448,-2.37653 0.0448,-2.37652 -3.92045,0.14927 c -3.19056,0.12223 -4.00305,0.0521 -4.42381,-0.38481 -0.42507,-0.44142 -1.97839,-0.5619 -8.7598088,-0.68983 -7.7795101,-0.14675 -8.2335201,-0.18921 -8.2217401,-0.81361 z M 21.705616,204.27039 c 0.007,0.0923 0.1549,0.22054 0.36104,0.38629 1.27648,1.02643 11.54231,8.13114 11.75571,8.13517 0.10288,0.002 0.22604,-1.92442 0.27049,-4.28086 l 0.0808,-4.28444 -6.47129,-0.12207 c -4.77212,-0.09 -6.01896,-0.11105 -5.99678,0.16591 z m 6.37389,71.55295 c 1.25697,0.0727 2.99033,0.13454 5.27597,0.17765 4.8795,0.0921 7.67874,0.0147 7.68302,-0.21223 0.004,-0.19637 0.72974,-0.3434 1.6134,-0.32673 1.59028,0.03 1.60686,0.02 1.62961,-1.18585 0.0216,-1.14304 0.11145,-1.23356 1.45572,-1.43467 l 1.43277,-0.21852 0.0417,-2.20917 c 0.034,-1.80095 -0.0889,-2.30559 -0.66272,-2.73587 -0.1134,-0.085 -0.20771,-0.20994 -0.29473,-0.35156 z"
         style="fill:#ffffff;stroke:#000000;stroke-width:0.35710004;stroke-opacity:1" />
      <g
         id="g3949"
         transform="matrix(0,-0.82352938,0.82352938,0,-117.20295,309.40987)">
        <path
           style="fill:#0094da"
           d="m 56.78125,106.09375 c -2.4e-5,0.0106 0,0.0207 0,0.0312 0,7.65574 6.363706,14.21875 14.0625,14.21875 6.472117,0 11.962479,-4.7483 13.46875,-10.875 0.0058,-0.0329 -0.0056,-0.0611 0,-0.0937 0.335855,-1.96063 0.375,-3.5292 0.375,-3.28125 0,0.55635 -2.39863,0.93219 -6.125,1.125 -0.0039,0.005 -0.02736,-0.005 -0.03125,0 -1.216963,1.57282 -2.587571,2.46875 -4.40625,2.46875 -2.380859,0 -4.457084,-2.00502 -5.90625,-2.34375 -0.01068,-0.002 -0.02064,0.002 -0.03125,0 -0.257737,-0.005 -0.49727,-0.0242 -0.75,-0.0312 -0.01052,-2.9e-4 -0.02074,2.9e-4 -0.03125,0 -0.907719,0.19393 -1.80777,1.02879 -2.875,2.4375 l -3.0625,-2.03125 c 0.120513,-0.26039 0.252021,-0.47985 0.375,-0.71875 -2.500479,-0.23166 -4.323279,-0.54293 -5.0625,-0.90625 z"
           transform="translate(1.2857198,113.98193)"
           id="path3"
           inkscape:connector-curvature="0" />
        <path
           style="fill:none;stroke:#ff0000;stroke-width:0.35433072;stroke-miterlimit:4;stroke-opacity:1;stroke-dasharray:none"
           inkscape:connector-curvature="0"
           d="m 73.568657,203.21882 0,-13.7829 -2.946195,0 0,13.78247 c -8.711542,0.74764 -15.53057,8.00655 -15.53057,16.89307 0,8.84261 6.819028,16.23281 15.53057,16.98171 l 0,12.57897 2.946195,0 0,-12.57833 c 8.623736,-0.70246 15.530571,-8.1391 15.530571,-16.98214 -2.12e-4,-8.9283 -6.906835,-16.18955 -15.530571,-16.89285 z m -1.45157,31.1042 c -7.698794,0 -14.03552,-6.5554 -14.03552,-14.21114 0,-7.65531 6.336726,-14.12248 14.03552,-14.12248 7.610987,0 13.902963,6.46717 13.902963,14.12248 0,7.65553 -6.2924,14.21114 -13.902963,14.21114 z"
           id="path5"
           sodipodi:nodetypes="ccccsccccccsssss" />
        <path
           style="fill:none;stroke:#ff0000;stroke-width:0.35433072;stroke-miterlimit:4;stroke-opacity:1;stroke-dasharray:none"
           inkscape:connector-curvature="0"
           d="m 69.125716,221.25613 c -1.055591,0 -2.067491,0.83671 -3.300392,2.4641 l -3.079815,-2.02422 c 1.628881,-3.51949 3.47643,-5.05992 5.720807,-5.05992 2.419142,0 4.838073,2.3307 6.598451,2.3307 1.056015,0 2.067067,-0.52663 3.387351,-2.46347 l 3.035487,2.02295 c -1.671088,3.21237 -3.386927,5.14857 -6.070762,5.14857 -2.597301,0 -4.838709,-2.41871 -6.291127,-2.41871"
           id="path7" />
      </g>
      <path
         sodipodi:type="arc"
         style="fill:none;stroke:#000000;stroke-width:0.35433072;stroke-miterlimit:4;stroke-opacity:1;stroke-dasharray:none"
         id="path3961"
         sodipodi:cx="77.952759"
         sodipodi:cy="28.346451"
         sodipodi:rx="7.0866141"
         sodipodi:ry="7.0866141"
         d="m 85.039373,28.346451 a 7.0866141,7.0866141 0 1 1 -14.173228,0 7.0866141,7.0866141 0 1 1 14.173228,0 z"
         transform="translate(-2.2575902,113.98193)" />
    </g>
  </g>
</svg>
