solid OpenSCAD_Model
  facet normal 0 0 1
    outer loop
      vertex -12.2268 2.5989 6
      vertex -12.5 0 6
      vertex -12.2268 -2.5989 6
    endloop
  endfacet
  facet normal 0 0 1
    outer loop
      vertex -10.1127 -7.34732 6
      vertex -12.2268 2.5989 6
      vertex -11.4193 -5.08421 6
    endloop
  endfacet
  facet normal 0 0 1
    outer loop
      vertex -11.4193 -5.08421 6
      vertex -12.2268 2.5989 6
      vertex -12.2268 -2.5989 6
    endloop
  endfacet
  facet normal 0 0 1
    outer loop
      vertex -8.36413 -9.28931 6
      vertex -12.2268 2.5989 6
      vertex -10.1127 -7.34732 6
    endloop
  endfacet
  facet normal 0 0 1
    outer loop
      vertex -6.25 -10.8253 6
      vertex -12.2268 2.5989 6
      vertex -8.36413 -9.28931 6
    endloop
  endfacet
  facet normal 0 0 1
    outer loop
      vertex -3.86271 -11.8882 6
      vertex -12.2268 2.5989 6
      vertex -6.25 -10.8253 6
    endloop
  endfacet
  facet normal 0 0 1
    outer loop
      vertex -1.30661 -12.4315 6
      vertex -12.2268 2.5989 6
      vertex -3.86271 -11.8882 6
    endloop
  endfacet
  facet normal -0 0 1
    outer loop
      vertex 1.30661 -12.4315 6
      vertex -12.2268 2.5989 6
      vertex -1.30661 -12.4315 6
    endloop
  endfacet
  facet normal -0 -0 1
    outer loop
      vertex -4.94975 -4.94975 6
      vertex -12.2268 2.5989 6
      vertex 1.30661 -12.4315 6
    endloop
  endfacet
  facet normal 0 0 1
    outer loop
      vertex -4.94975 -4.94975 6
      vertex -5.90326 -3.70711 6
      vertex -12.2268 2.5989 6
    endloop
  endfacet
  facet normal 0 -0 1
    outer loop
      vertex 6.16208 -3.25882 6
      vertex 6.06218 -3.5 6
      vertex 11.4193 -5.08421 6
    endloop
  endfacet
  facet normal -0 0 1
    outer loop
      vertex -6.06218 3.5 6
      vertex -5.10867 4.74264 6
      vertex -12.2268 2.5989 6
    endloop
  endfacet
  facet normal 0 -0 1
    outer loop
      vertex 3.86271 11.8882 6
      vertex -12.2268 2.5989 6
      vertex 6.25 10.8253 6
    endloop
  endfacet
  facet normal 0 -0 1
    outer loop
      vertex 1.30661 12.4315 6
      vertex -12.2268 2.5989 6
      vertex 3.86271 11.8882 6
    endloop
  endfacet
  facet normal 0 -0 1
    outer loop
      vertex -1.30661 12.4315 6
      vertex -12.2268 2.5989 6
      vertex 1.30661 12.4315 6
    endloop
  endfacet
  facet normal 0 -0 1
    outer loop
      vertex -3.86271 11.8882 6
      vertex -12.2268 2.5989 6
      vertex -1.30661 12.4315 6
    endloop
  endfacet
  facet normal 0 -0 1
    outer loop
      vertex -6.25 10.8253 6
      vertex -12.2268 2.5989 6
      vertex -3.86271 11.8882 6
    endloop
  endfacet
  facet normal 0 -0 1
    outer loop
      vertex -8.36413 9.28931 6
      vertex -12.2268 2.5989 6
      vertex -6.25 10.8253 6
    endloop
  endfacet
  facet normal 0 -0 1
    outer loop
      vertex -10.1127 7.34732 6
      vertex -12.2268 2.5989 6
      vertex -8.36413 9.28931 6
    endloop
  endfacet
  facet normal 0 -0 1
    outer loop
      vertex -11.4193 5.08421 6
      vertex -12.2268 2.5989 6
      vertex -10.1127 7.34732 6
    endloop
  endfacet
  facet normal 0 -0 1
    outer loop
      vertex 1.81173 -6.76148 6
      vertex 0.258819 -6.96593 6
      vertex 6.25 -10.8253 6
    endloop
  endfacet
  facet normal -0 -0 1
    outer loop
      vertex -7 0 6
      vertex -12.2268 2.5989 6
      vertex -6.96593 -0.258819 6
    endloop
  endfacet
  facet normal 0 -0 1
    outer loop
      vertex 3.5 -6.06218 6
      vertex 2.05291 -6.66158 6
      vertex 8.36413 -9.28931 6
    endloop
  endfacet
  facet normal -0 0 1
    outer loop
      vertex -6.76148 1.81173 6
      vertex -12.2268 2.5989 6
      vertex -6.79556 1.55291 6
    endloop
  endfacet
  facet normal 0 -0 1
    outer loop
      vertex 7 0 6
      vertex 6.79556 -1.55291 6
      vertex 12.2268 -2.5989 6
    endloop
  endfacet
  facet normal 0 0 1
    outer loop
      vertex 6.06218 3.5 6
      vertex 6.66158 2.05291 6
      vertex 12.2268 2.5989 6
    endloop
  endfacet
  facet normal 0 0 1
    outer loop
      vertex -6.06218 3.5 6
      vertex -12.2268 2.5989 6
      vertex -6.16208 3.25882 6
    endloop
  endfacet
  facet normal 0 0 1
    outer loop
      vertex 4.94975 4.94975 6
      vertex 5.90326 3.70711 6
      vertex 11.4193 5.08421 6
    endloop
  endfacet
  facet normal 0 0 1
    outer loop
      vertex 0 7 6
      vertex 1.55291 6.79556 6
      vertex 8.36413 9.28931 6
    endloop
  endfacet
  facet normal 0 0 1
    outer loop
      vertex -4.94975 4.94975 6
      vertex -12.2268 2.5989 6
      vertex -5.10867 4.74264 6
    endloop
  endfacet
  facet normal 0 0 1
    outer loop
      vertex 1.81173 6.76148 6
      vertex 3.25882 6.16208 6
      vertex 10.1127 7.34732 6
    endloop
  endfacet
  facet normal 0 0 1
    outer loop
      vertex -3.5 6.06218 6
      vertex -2.05291 6.66158 6
      vertex 6.25 10.8253 6
    endloop
  endfacet
  facet normal 0 0 1
    outer loop
      vertex 6.76148 1.81173 6
      vertex 6.96593 0.258819 6
      vertex 12.5 0 6
    endloop
  endfacet
  facet normal 0 0 1
    outer loop
      vertex -3.5 6.06218 6
      vertex -12.2268 2.5989 6
      vertex -3.70711 5.90326 6
    endloop
  endfacet
  facet normal 0 0 1
    outer loop
      vertex -1.81173 6.76148 6
      vertex -0.258819 6.96593 6
      vertex 8.36413 9.28931 6
    endloop
  endfacet
  facet normal 0 0 1
    outer loop
      vertex 6.25 10.8253 6
      vertex -12.2268 2.5989 6
      vertex -3.5 6.06218 6
    endloop
  endfacet
  facet normal 0 -0 1
    outer loop
      vertex 6.25 10.8253 6
      vertex -1.81173 6.76148 6
      vertex 8.36413 9.28931 6
    endloop
  endfacet
  facet normal 0 0 1
    outer loop
      vertex 6.25 10.8253 6
      vertex -2.05291 6.66158 6
      vertex -1.81173 6.76148 6
    endloop
  endfacet
  facet normal 0 0 1
    outer loop
      vertex -0.258819 6.96593 6
      vertex 0 7 6
      vertex 8.36413 9.28931 6
    endloop
  endfacet
  facet normal 0 -0 1
    outer loop
      vertex 8.36413 9.28931 6
      vertex 1.55291 6.79556 6
      vertex 10.1127 7.34732 6
    endloop
  endfacet
  facet normal 0 0 1
    outer loop
      vertex 1.55291 6.79556 6
      vertex 1.81173 6.76148 6
      vertex 10.1127 7.34732 6
    endloop
  endfacet
  facet normal 0 0 1
    outer loop
      vertex 3.5 6.06218 6
      vertex 4.74264 5.10867 6
      vertex 10.1127 7.34732 6
    endloop
  endfacet
  facet normal 0 0 1
    outer loop
      vertex 3.25882 6.16208 6
      vertex 3.5 6.06218 6
      vertex 10.1127 7.34732 6
    endloop
  endfacet
  facet normal -0 0 1
    outer loop
      vertex -4.94975 4.94975 6
      vertex -3.70711 5.90326 6
      vertex -12.2268 2.5989 6
    endloop
  endfacet
  facet normal 0 -0 1
    outer loop
      vertex 10.1127 7.34732 6
      vertex 4.74264 5.10867 6
      vertex 11.4193 5.08421 6
    endloop
  endfacet
  facet normal 0 0 1
    outer loop
      vertex 4.74264 5.10867 6
      vertex 4.94975 4.94975 6
      vertex 11.4193 5.08421 6
    endloop
  endfacet
  facet normal 0 -0 1
    outer loop
      vertex 11.4193 5.08421 6
      vertex 5.90326 3.70711 6
      vertex 12.2268 2.5989 6
    endloop
  endfacet
  facet normal 0 0 1
    outer loop
      vertex 5.90326 3.70711 6
      vertex 6.06218 3.5 6
      vertex 12.2268 2.5989 6
    endloop
  endfacet
  facet normal 0 -0 1
    outer loop
      vertex 12.2268 2.5989 6
      vertex 6.66158 2.05291 6
      vertex 12.5 0 6
    endloop
  endfacet
  facet normal 0 0 1
    outer loop
      vertex 6.66158 2.05291 6
      vertex 6.76148 1.81173 6
      vertex 12.5 0 6
    endloop
  endfacet
  facet normal -0 0 1
    outer loop
      vertex 12.5 0 6
      vertex 6.96593 0.258819 6
      vertex 12.2268 -2.5989 6
    endloop
  endfacet
  facet normal 0 0 1
    outer loop
      vertex 6.96593 0.258819 6
      vertex 7 0 6
      vertex 12.2268 -2.5989 6
    endloop
  endfacet
  facet normal -0 0 1
    outer loop
      vertex 12.2268 -2.5989 6
      vertex 6.79556 -1.55291 6
      vertex 11.4193 -5.08421 6
    endloop
  endfacet
  facet normal 0 -0 1
    outer loop
      vertex 6.79556 -1.55291 6
      vertex 6.76148 -1.81173 6
      vertex 11.4193 -5.08421 6
    endloop
  endfacet
  facet normal 0 -0 1
    outer loop
      vertex 6.76148 -1.81173 6
      vertex 6.16208 -3.25882 6
      vertex 11.4193 -5.08421 6
    endloop
  endfacet
  facet normal -0 0 1
    outer loop
      vertex 11.4193 -5.08421 6
      vertex 6.06218 -3.5 6
      vertex 10.1127 -7.34732 6
    endloop
  endfacet
  facet normal 0 0 1
    outer loop
      vertex -6.06218 -3.5 6
      vertex -6.66158 -2.05291 6
      vertex -12.2268 2.5989 6
    endloop
  endfacet
  facet normal 0 -0 1
    outer loop
      vertex 6.06218 -3.5 6
      vertex 5.10867 -4.74264 6
      vertex 10.1127 -7.34732 6
    endloop
  endfacet
  facet normal 0 -0 1
    outer loop
      vertex 4.94975 -4.94975 6
      vertex 3.70711 -5.90326 6
      vertex 10.1127 -7.34732 6
    endloop
  endfacet
  facet normal 0 -0 1
    outer loop
      vertex 5.10867 -4.74264 6
      vertex 4.94975 -4.94975 6
      vertex 10.1127 -7.34732 6
    endloop
  endfacet
  facet normal 0 0 1
    outer loop
      vertex -6.76148 1.81173 6
      vertex -6.16208 3.25882 6
      vertex -12.2268 2.5989 6
    endloop
  endfacet
  facet normal -0 0 1
    outer loop
      vertex 10.1127 -7.34732 6
      vertex 3.70711 -5.90326 6
      vertex 8.36413 -9.28931 6
    endloop
  endfacet
  facet normal 0 -0 1
    outer loop
      vertex 3.70711 -5.90326 6
      vertex 3.5 -6.06218 6
      vertex 8.36413 -9.28931 6
    endloop
  endfacet
  facet normal -0 0 1
    outer loop
      vertex 8.36413 -9.28931 6
      vertex 2.05291 -6.66158 6
      vertex 6.25 -10.8253 6
    endloop
  endfacet
  facet normal 0 -0 1
    outer loop
      vertex 2.05291 -6.66158 6
      vertex 1.81173 -6.76148 6
      vertex 6.25 -10.8253 6
    endloop
  endfacet
  facet normal -0 0 1
    outer loop
      vertex 6.25 -10.8253 6
      vertex 0.258819 -6.96593 6
      vertex 3.86271 -11.8882 6
    endloop
  endfacet
  facet normal 0 -0 1
    outer loop
      vertex 0.258819 -6.96593 6
      vertex 0 -7 6
      vertex 3.86271 -11.8882 6
    endloop
  endfacet
  facet normal -0 -0 1
    outer loop
      vertex 0 -7 6
      vertex -1.55291 -6.79556 6
      vertex 3.86271 -11.8882 6
    endloop
  endfacet
  facet normal -0 -0 1
    outer loop
      vertex -1.55291 -6.79556 6
      vertex -1.81173 -6.76148 6
      vertex 3.86271 -11.8882 6
    endloop
  endfacet
  facet normal -0 0 1
    outer loop
      vertex 3.86271 -11.8882 6
      vertex -3.25882 -6.16208 6
      vertex 1.30661 -12.4315 6
    endloop
  endfacet
  facet normal -0 -0 1
    outer loop
      vertex -3.25882 -6.16208 6
      vertex -3.5 -6.06218 6
      vertex 1.30661 -12.4315 6
    endloop
  endfacet
  facet normal -0 -0 1
    outer loop
      vertex -3.5 -6.06218 6
      vertex -4.74264 -5.10867 6
      vertex 1.30661 -12.4315 6
    endloop
  endfacet
  facet normal -0 -0 1
    outer loop
      vertex -4.74264 -5.10867 6
      vertex -4.94975 -4.94975 6
      vertex 1.30661 -12.4315 6
    endloop
  endfacet
  facet normal 0 0 1
    outer loop
      vertex -5.90326 -3.70711 6
      vertex -6.06218 -3.5 6
      vertex -12.2268 2.5989 6
    endloop
  endfacet
  facet normal -0 -0 1
    outer loop
      vertex -6.76148 -1.81173 6
      vertex -12.2268 2.5989 6
      vertex -6.66158 -2.05291 6
    endloop
  endfacet
  facet normal -0 -0 1
    outer loop
      vertex -1.81173 -6.76148 6
      vertex -3.25882 -6.16208 6
      vertex 3.86271 -11.8882 6
    endloop
  endfacet
  facet normal 0 0 1
    outer loop
      vertex -6.76148 -1.81173 6
      vertex -6.96593 -0.258819 6
      vertex -12.2268 2.5989 6
    endloop
  endfacet
  facet normal 0 0 1
    outer loop
      vertex -7 0 6
      vertex -6.79556 1.55291 6
      vertex -12.2268 2.5989 6
    endloop
  endfacet
  facet normal -0.918763 -0.0965659 -0.382818
    outer loop
      vertex -12.2268 -2.5989 6
      vertex -12.5 0 6
      vertex -9.78148 -2.07912 0
    endloop
  endfacet
  facet normal -0.918763 -0.0965659 -0.382818
    outer loop
      vertex -9.78148 -2.07912 0
      vertex -12.5 0 6
      vertex -10 0 0
    endloop
  endfacet
  facet normal -0.918763 0.0965659 -0.382818
    outer loop
      vertex -10 0 0
      vertex -12.5 0 6
      vertex -12.2268 2.5989 6
    endloop
  endfacet
  facet normal -0.918763 0.0965659 -0.382818
    outer loop
      vertex -10 0 0
      vertex -12.2268 2.5989 6
      vertex -9.78148 2.07912 0
    endloop
  endfacet
  facet normal -0.878609 0.285477 -0.382818
    outer loop
      vertex -9.78148 2.07912 0
      vertex -12.2268 2.5989 6
      vertex -11.4193 5.08421 6
    endloop
  endfacet
  facet normal -0.878609 0.285477 -0.382818
    outer loop
      vertex -9.78148 2.07912 0
      vertex -11.4193 5.08421 6
      vertex -9.13546 4.06737 0
    endloop
  endfacet
  facet normal -0.800055 0.461912 -0.382818
    outer loop
      vertex -9.13546 4.06737 0
      vertex -11.4193 5.08421 6
      vertex -10.1127 7.34732 6
    endloop
  endfacet
  facet normal -0.800055 0.461912 -0.382818
    outer loop
      vertex -9.13546 4.06737 0
      vertex -10.1127 7.34732 6
      vertex -8.09017 5.87785 0
    endloop
  endfacet
  facet normal -0.686535 0.618159 -0.382818
    outer loop
      vertex -8.09017 5.87785 0
      vertex -10.1127 7.34732 6
      vertex -8.36413 9.28931 6
    endloop
  endfacet
  facet normal -0.686535 0.618159 -0.382818
    outer loop
      vertex -8.09017 5.87785 0
      vertex -8.36413 9.28931 6
      vertex -6.69131 7.43145 0
    endloop
  endfacet
  facet normal -0.54301 0.747389 -0.382818
    outer loop
      vertex -6.69131 7.43145 0
      vertex -8.36413 9.28931 6
      vertex -6.25 10.8253 6
    endloop
  endfacet
  facet normal -0.54301 0.747389 -0.382818
    outer loop
      vertex -5 8.66025 0
      vertex -6.69131 7.43145 0
      vertex -6.25 10.8253 6
    endloop
  endfacet
  facet normal -0.375753 0.843955 -0.382818
    outer loop
      vertex -5 8.66025 0
      vertex -6.25 10.8253 6
      vertex -3.86271 11.8882 6
    endloop
  endfacet
  facet normal -0.375753 0.843955 -0.382818
    outer loop
      vertex -3.09017 9.51056 0
      vertex -5 8.66025 0
      vertex -3.86271 11.8882 6
    endloop
  endfacet
  facet normal -0.192074 0.903636 -0.382818
    outer loop
      vertex -3.09017 9.51056 0
      vertex -3.86271 11.8882 6
      vertex -1.30661 12.4315 6
    endloop
  endfacet
  facet normal -0.192074 0.903636 -0.382818
    outer loop
      vertex -1.04529 9.94522 0
      vertex -3.09017 9.51056 0
      vertex -1.30661 12.4315 6
    endloop
  endfacet
  facet normal 0 0.923824 -0.382818
    outer loop
      vertex -1.30661 12.4315 6
      vertex 1.30661 12.4315 6
      vertex -1.04529 9.94522 0
    endloop
  endfacet
  facet normal 0 0.923824 -0.382818
    outer loop
      vertex -1.04529 9.94522 0
      vertex 1.30661 12.4315 6
      vertex 1.04529 9.94522 0
    endloop
  endfacet
  facet normal 0.192074 0.903636 -0.382818
    outer loop
      vertex 3.86271 11.8882 6
      vertex 1.04529 9.94522 0
      vertex 1.30661 12.4315 6
    endloop
  endfacet
  facet normal 0.192074 0.903636 -0.382818
    outer loop
      vertex 3.09017 9.51056 0
      vertex 1.04529 9.94522 0
      vertex 3.86271 11.8882 6
    endloop
  endfacet
  facet normal 0.375753 0.843955 -0.382818
    outer loop
      vertex 6.25 10.8253 6
      vertex 3.09017 9.51056 0
      vertex 3.86271 11.8882 6
    endloop
  endfacet
  facet normal 0.375753 0.843955 -0.382818
    outer loop
      vertex 5 8.66025 0
      vertex 3.09017 9.51056 0
      vertex 6.25 10.8253 6
    endloop
  endfacet
  facet normal 0.54301 0.747389 -0.382818
    outer loop
      vertex 8.36413 9.28931 6
      vertex 5 8.66025 0
      vertex 6.25 10.8253 6
    endloop
  endfacet
  facet normal 0.54301 0.747389 -0.382818
    outer loop
      vertex 6.69131 7.43145 0
      vertex 5 8.66025 0
      vertex 8.36413 9.28931 6
    endloop
  endfacet
  facet normal 0.686535 0.618159 -0.382818
    outer loop
      vertex 10.1127 7.34732 6
      vertex 6.69131 7.43145 0
      vertex 8.36413 9.28931 6
    endloop
  endfacet
  facet normal 0.686535 0.618159 -0.382818
    outer loop
      vertex 8.09017 5.87785 0
      vertex 6.69131 7.43145 0
      vertex 10.1127 7.34732 6
    endloop
  endfacet
  facet normal 0.800055 0.461912 -0.382818
    outer loop
      vertex 11.4193 5.08421 6
      vertex 8.09017 5.87785 0
      vertex 10.1127 7.34732 6
    endloop
  endfacet
  facet normal 0.800055 0.461912 -0.382818
    outer loop
      vertex 9.13546 4.06737 0
      vertex 8.09017 5.87785 0
      vertex 11.4193 5.08421 6
    endloop
  endfacet
  facet normal 0.878609 0.285477 -0.382818
    outer loop
      vertex 12.2268 2.5989 6
      vertex 9.13546 4.06737 0
      vertex 11.4193 5.08421 6
    endloop
  endfacet
  facet normal 0.878609 0.285477 -0.382818
    outer loop
      vertex 9.78148 2.07912 0
      vertex 9.13546 4.06737 0
      vertex 12.2268 2.5989 6
    endloop
  endfacet
  facet normal 0.918763 0.0965659 -0.382818
    outer loop
      vertex 12.5 0 6
      vertex 9.78148 2.07912 0
      vertex 12.2268 2.5989 6
    endloop
  endfacet
  facet normal 0.918763 0.0965659 -0.382818
    outer loop
      vertex 10 0 0
      vertex 9.78148 2.07912 0
      vertex 12.5 0 6
    endloop
  endfacet
  facet normal 0.918763 -0.0965659 -0.382818
    outer loop
      vertex 12.2268 -2.5989 6
      vertex 10 0 0
      vertex 12.5 0 6
    endloop
  endfacet
  facet normal 0.918763 -0.0965659 -0.382818
    outer loop
      vertex 12.2268 -2.5989 6
      vertex 9.78148 -2.07912 0
      vertex 10 0 0
    endloop
  endfacet
  facet normal 0.878609 -0.285477 -0.382818
    outer loop
      vertex 11.4193 -5.08421 6
      vertex 9.78148 -2.07912 0
      vertex 12.2268 -2.5989 6
    endloop
  endfacet
  facet normal 0.878609 -0.285477 -0.382818
    outer loop
      vertex 11.4193 -5.08421 6
      vertex 9.13546 -4.06737 0
      vertex 9.78148 -2.07912 0
    endloop
  endfacet
  facet normal 0.800055 -0.461912 -0.382818
    outer loop
      vertex 10.1127 -7.34732 6
      vertex 9.13546 -4.06737 0
      vertex 11.4193 -5.08421 6
    endloop
  endfacet
  facet normal 0.800055 -0.461912 -0.382818
    outer loop
      vertex 10.1127 -7.34732 6
      vertex 8.09017 -5.87785 0
      vertex 9.13546 -4.06737 0
    endloop
  endfacet
  facet normal 0.686535 -0.618159 -0.382818
    outer loop
      vertex 8.36413 -9.28931 6
      vertex 8.09017 -5.87785 0
      vertex 10.1127 -7.34732 6
    endloop
  endfacet
  facet normal 0.686535 -0.618159 -0.382818
    outer loop
      vertex 8.36413 -9.28931 6
      vertex 6.69131 -7.43145 0
      vertex 8.09017 -5.87785 0
    endloop
  endfacet
  facet normal 0.54301 -0.747389 -0.382818
    outer loop
      vertex 8.36413 -9.28931 6
      vertex 6.25 -10.8253 6
      vertex 6.69131 -7.43145 0
    endloop
  endfacet
  facet normal 0.54301 -0.747389 -0.382818
    outer loop
      vertex 6.25 -10.8253 6
      vertex 5 -8.66025 0
      vertex 6.69131 -7.43145 0
    endloop
  endfacet
  facet normal 0.375753 -0.843955 -0.382818
    outer loop
      vertex 6.25 -10.8253 6
      vertex 3.86271 -11.8882 6
      vertex 5 -8.66025 0
    endloop
  endfacet
  facet normal 0.375753 -0.843955 -0.382818
    outer loop
      vertex 3.86271 -11.8882 6
      vertex 3.09017 -9.51056 0
      vertex 5 -8.66025 0
    endloop
  endfacet
  facet normal 0.192074 -0.903636 -0.382818
    outer loop
      vertex 3.86271 -11.8882 6
      vertex 1.30661 -12.4315 6
      vertex 3.09017 -9.51056 0
    endloop
  endfacet
  facet normal 0.192074 -0.903636 -0.382818
    outer loop
      vertex 1.30661 -12.4315 6
      vertex 1.04529 -9.94522 0
      vertex 3.09017 -9.51056 0
    endloop
  endfacet
  facet normal 0 -0.923824 -0.382818
    outer loop
      vertex 1.30661 -12.4315 6
      vertex -1.30661 -12.4315 6
      vertex -1.04529 -9.94522 0
    endloop
  endfacet
  facet normal 0 -0.923824 -0.382818
    outer loop
      vertex 1.04529 -9.94522 0
      vertex 1.30661 -12.4315 6
      vertex -1.04529 -9.94522 0
    endloop
  endfacet
  facet normal -0.192074 -0.903636 -0.382818
    outer loop
      vertex -1.30661 -12.4315 6
      vertex -3.86271 -11.8882 6
      vertex -1.04529 -9.94522 0
    endloop
  endfacet
  facet normal -0.192074 -0.903636 -0.382818
    outer loop
      vertex -1.04529 -9.94522 0
      vertex -3.86271 -11.8882 6
      vertex -3.09017 -9.51056 0
    endloop
  endfacet
  facet normal -0.375753 -0.843955 -0.382818
    outer loop
      vertex -3.86271 -11.8882 6
      vertex -6.25 -10.8253 6
      vertex -3.09017 -9.51056 0
    endloop
  endfacet
  facet normal -0.375753 -0.843955 -0.382818
    outer loop
      vertex -3.09017 -9.51056 0
      vertex -6.25 -10.8253 6
      vertex -5 -8.66025 0
    endloop
  endfacet
  facet normal -0.54301 -0.747389 -0.382818
    outer loop
      vertex -6.25 -10.8253 6
      vertex -8.36413 -9.28931 6
      vertex -5 -8.66025 0
    endloop
  endfacet
  facet normal -0.54301 -0.747389 -0.382818
    outer loop
      vertex -5 -8.66025 0
      vertex -8.36413 -9.28931 6
      vertex -6.69131 -7.43145 0
    endloop
  endfacet
  facet normal -0.686535 -0.618159 -0.382818
    outer loop
      vertex -8.36413 -9.28931 6
      vertex -10.1127 -7.34732 6
      vertex -6.69131 -7.43145 0
    endloop
  endfacet
  facet normal -0.686535 -0.618159 -0.382818
    outer loop
      vertex -6.69131 -7.43145 0
      vertex -10.1127 -7.34732 6
      vertex -8.09017 -5.87785 0
    endloop
  endfacet
  facet normal -0.800055 -0.461912 -0.382818
    outer loop
      vertex -10.1127 -7.34732 6
      vertex -11.4193 -5.08421 6
      vertex -8.09017 -5.87785 0
    endloop
  endfacet
  facet normal -0.800055 -0.461912 -0.382818
    outer loop
      vertex -8.09017 -5.87785 0
      vertex -11.4193 -5.08421 6
      vertex -9.13546 -4.06737 0
    endloop
  endfacet
  facet normal -0.878609 -0.285477 -0.382818
    outer loop
      vertex -11.4193 -5.08421 6
      vertex -12.2268 -2.5989 6
      vertex -9.13546 -4.06737 0
    endloop
  endfacet
  facet normal -0.878609 -0.285477 -0.382818
    outer loop
      vertex -9.13546 -4.06737 0
      vertex -12.2268 -2.5989 6
      vertex -9.78148 -2.07912 0
    endloop
  endfacet
  facet normal 0.88829 0.116945 0.444145
    outer loop
      vertex -6.76148 -1.81173 6
      vertex -4.82963 -1.29409 2
      vertex -6.96593 -0.258819 6
    endloop
  endfacet
  facet normal 0.88829 0.116946 0.444145
    outer loop
      vertex -6.96593 -0.258819 6
      vertex -4.82963 -1.29409 2
      vertex -5 0 2
    endloop
  endfacet
  facet normal 0.88829 0.116946 0.444145
    outer loop
      vertex -7 0 6
      vertex -6.96593 -0.258819 6
      vertex -5 0 2
    endloop
  endfacet
  facet normal 0.827754 0.342867 0.444145
    outer loop
      vertex -6.66158 -2.05291 6
      vertex -4.33013 -2.5 2
      vertex -4.82963 -1.29409 2
    endloop
  endfacet
  facet normal 0.827754 0.342867 0.444145
    outer loop
      vertex -6.76148 -1.81173 6
      vertex -6.66158 -2.05291 6
      vertex -4.82963 -1.29409 2
    endloop
  endfacet
  facet normal 0.827754 0.342867 0.444145
    outer loop
      vertex -6.06218 -3.5 6
      vertex -4.33013 -2.5 2
      vertex -6.66158 -2.05291 6
    endloop
  endfacet
  facet normal 0.710809 0.545423 0.444145
    outer loop
      vertex -5.90326 -3.70711 6
      vertex -3.53553 -3.53553 2
      vertex -4.33013 -2.5 2
    endloop
  endfacet
  facet normal 0.710809 0.545423 0.444145
    outer loop
      vertex -6.06218 -3.5 6
      vertex -5.90326 -3.70711 6
      vertex -4.33013 -2.5 2
    endloop
  endfacet
  facet normal 0.710809 0.545423 0.444145
    outer loop
      vertex -4.94975 -4.94975 6
      vertex -3.53553 -3.53553 2
      vertex -5.90326 -3.70711 6
    endloop
  endfacet
  facet normal 0.545423 0.710809 0.444145
    outer loop
      vertex -2.5 -4.33013 2
      vertex -3.53553 -3.53553 2
      vertex -4.74264 -5.10867 6
    endloop
  endfacet
  facet normal 0.545423 0.710809 0.444145
    outer loop
      vertex -4.74264 -5.10867 6
      vertex -3.53553 -3.53553 2
      vertex -4.94975 -4.94975 6
    endloop
  endfacet
  facet normal 0.545423 0.710809 0.444145
    outer loop
      vertex -3.5 -6.06218 6
      vertex -2.5 -4.33013 2
      vertex -4.74264 -5.10867 6
    endloop
  endfacet
  facet normal 0.342867 0.827754 0.444145
    outer loop
      vertex -1.29409 -4.82963 2
      vertex -2.5 -4.33013 2
      vertex -3.25882 -6.16208 6
    endloop
  endfacet
  facet normal 0.342867 0.827754 0.444145
    outer loop
      vertex -3.25882 -6.16208 6
      vertex -2.5 -4.33013 2
      vertex -3.5 -6.06218 6
    endloop
  endfacet
  facet normal 0.342867 0.827754 0.444145
    outer loop
      vertex -1.81173 -6.76148 6
      vertex -1.29409 -4.82963 2
      vertex -3.25882 -6.16208 6
    endloop
  endfacet
  facet normal 0.116946 0.88829 0.444145
    outer loop
      vertex 0 -5 2
      vertex -1.29409 -4.82963 2
      vertex -1.55291 -6.79556 6
    endloop
  endfacet
  facet normal 0.116946 0.88829 0.444145
    outer loop
      vertex -1.55291 -6.79556 6
      vertex -1.29409 -4.82963 2
      vertex -1.81173 -6.76148 6
    endloop
  endfacet
  facet normal 0.116945 0.88829 0.444145
    outer loop
      vertex 0 -7 6
      vertex 0 -5 2
      vertex -1.55291 -6.79556 6
    endloop
  endfacet
  facet normal -0.116946 0.88829 0.444145
    outer loop
      vertex 1.29409 -4.82963 2
      vertex 0 -5 2
      vertex 0.258819 -6.96593 6
    endloop
  endfacet
  facet normal -0.116946 0.88829 0.444145
    outer loop
      vertex 0.258819 -6.96593 6
      vertex 0 -5 2
      vertex 0 -7 6
    endloop
  endfacet
  facet normal -0.116945 0.88829 0.444145
    outer loop
      vertex 1.81173 -6.76148 6
      vertex 1.29409 -4.82963 2
      vertex 0.258819 -6.96593 6
    endloop
  endfacet
  facet normal -0.342867 0.827754 0.444145
    outer loop
      vertex 2.05291 -6.66158 6
      vertex 2.5 -4.33013 2
      vertex 1.81173 -6.76148 6
    endloop
  endfacet
  facet normal -0.342867 0.827754 0.444145
    outer loop
      vertex 1.81173 -6.76148 6
      vertex 2.5 -4.33013 2
      vertex 1.29409 -4.82963 2
    endloop
  endfacet
  facet normal -0.342867 0.827754 0.444145
    outer loop
      vertex 3.5 -6.06218 6
      vertex 2.5 -4.33013 2
      vertex 2.05291 -6.66158 6
    endloop
  endfacet
  facet normal -0.545423 0.710809 0.444145
    outer loop
      vertex 3.70711 -5.90326 6
      vertex 3.53553 -3.53553 2
      vertex 3.5 -6.06218 6
    endloop
  endfacet
  facet normal -0.545423 0.710809 0.444145
    outer loop
      vertex 3.5 -6.06218 6
      vertex 3.53553 -3.53553 2
      vertex 2.5 -4.33013 2
    endloop
  endfacet
  facet normal -0.545423 0.710809 0.444145
    outer loop
      vertex 3.70711 -5.90326 6
      vertex 4.94975 -4.94975 6
      vertex 3.53553 -3.53553 2
    endloop
  endfacet
  facet normal -0.710809 0.545423 0.444145
    outer loop
      vertex 5.10867 -4.74264 6
      vertex 4.33013 -2.5 2
      vertex 4.94975 -4.94975 6
    endloop
  endfacet
  facet normal -0.710809 0.545423 0.444145
    outer loop
      vertex 4.94975 -4.94975 6
      vertex 4.33013 -2.5 2
      vertex 3.53553 -3.53553 2
    endloop
  endfacet
  facet normal -0.710809 0.545423 0.444145
    outer loop
      vertex 5.10867 -4.74264 6
      vertex 6.06218 -3.5 6
      vertex 4.33013 -2.5 2
    endloop
  endfacet
  facet normal -0.827754 0.342867 0.444145
    outer loop
      vertex 6.16208 -3.25882 6
      vertex 4.82963 -1.29409 2
      vertex 6.06218 -3.5 6
    endloop
  endfacet
  facet normal -0.827754 0.342867 0.444145
    outer loop
      vertex 6.06218 -3.5 6
      vertex 4.82963 -1.29409 2
      vertex 4.33013 -2.5 2
    endloop
  endfacet
  facet normal -0.827754 0.342867 0.444145
    outer loop
      vertex 6.16208 -3.25882 6
      vertex 6.76148 -1.81173 6
      vertex 4.82963 -1.29409 2
    endloop
  endfacet
  facet normal -0.88829 0.116946 0.444145
    outer loop
      vertex 6.79556 -1.55291 6
      vertex 5 0 2
      vertex 6.76148 -1.81173 6
    endloop
  endfacet
  facet normal -0.88829 0.116946 0.444145
    outer loop
      vertex 6.76148 -1.81173 6
      vertex 5 0 2
      vertex 4.82963 -1.29409 2
    endloop
  endfacet
  facet normal -0.88829 0.116945 0.444145
    outer loop
      vertex 6.79556 -1.55291 6
      vertex 7 0 6
      vertex 5 0 2
    endloop
  endfacet
  facet normal -0.88829 -0.116946 0.444145
    outer loop
      vertex 7 0 6
      vertex 6.96593 0.258819 6
      vertex 5 0 2
    endloop
  endfacet
  facet normal -0.88829 -0.116946 0.444145
    outer loop
      vertex 5 0 2
      vertex 6.96593 0.258819 6
      vertex 4.82963 1.29409 2
    endloop
  endfacet
  facet normal -0.88829 -0.116945 0.444145
    outer loop
      vertex 6.96593 0.258819 6
      vertex 6.76148 1.81173 6
      vertex 4.82963 1.29409 2
    endloop
  endfacet
  facet normal -0.827754 -0.342867 0.444145
    outer loop
      vertex 6.76148 1.81173 6
      vertex 6.66158 2.05291 6
      vertex 4.82963 1.29409 2
    endloop
  endfacet
  facet normal -0.827754 -0.342867 0.444145
    outer loop
      vertex 4.82963 1.29409 2
      vertex 6.66158 2.05291 6
      vertex 4.33013 2.5 2
    endloop
  endfacet
  facet normal -0.827754 -0.342867 0.444145
    outer loop
      vertex 6.66158 2.05291 6
      vertex 6.06218 3.5 6
      vertex 4.33013 2.5 2
    endloop
  endfacet
  facet normal -0.710809 -0.545423 0.444145
    outer loop
      vertex 6.06218 3.5 6
      vertex 5.90326 3.70711 6
      vertex 4.33013 2.5 2
    endloop
  endfacet
  facet normal -0.710809 -0.545423 0.444145
    outer loop
      vertex 4.33013 2.5 2
      vertex 5.90326 3.70711 6
      vertex 3.53553 3.53553 2
    endloop
  endfacet
  facet normal -0.710809 -0.545423 0.444145
    outer loop
      vertex 5.90326 3.70711 6
      vertex 4.94975 4.94975 6
      vertex 3.53553 3.53553 2
    endloop
  endfacet
  facet normal -0.545423 -0.710809 0.444145
    outer loop
      vertex 3.53553 3.53553 2
      vertex 4.94975 4.94975 6
      vertex 4.74264 5.10867 6
    endloop
  endfacet
  facet normal -0.545423 -0.710809 0.444145
    outer loop
      vertex 2.5 4.33013 2
      vertex 3.53553 3.53553 2
      vertex 4.74264 5.10867 6
    endloop
  endfacet
  facet normal -0.545423 -0.710809 0.444145
    outer loop
      vertex 4.74264 5.10867 6
      vertex 3.5 6.06218 6
      vertex 2.5 4.33013 2
    endloop
  endfacet
  facet normal -0.342867 -0.827754 0.444145
    outer loop
      vertex 2.5 4.33013 2
      vertex 3.5 6.06218 6
      vertex 3.25882 6.16208 6
    endloop
  endfacet
  facet normal -0.342867 -0.827754 0.444145
    outer loop
      vertex 1.29409 4.82963 2
      vertex 2.5 4.33013 2
      vertex 3.25882 6.16208 6
    endloop
  endfacet
  facet normal -0.342867 -0.827754 0.444145
    outer loop
      vertex 3.25882 6.16208 6
      vertex 1.81173 6.76148 6
      vertex 1.29409 4.82963 2
    endloop
  endfacet
  facet normal -0.116946 -0.88829 0.444145
    outer loop
      vertex 1.29409 4.82963 2
      vertex 1.81173 6.76148 6
      vertex 1.55291 6.79556 6
    endloop
  endfacet
  facet normal -0.116946 -0.88829 0.444145
    outer loop
      vertex 0 5 2
      vertex 1.29409 4.82963 2
      vertex 1.55291 6.79556 6
    endloop
  endfacet
  facet normal -0.116945 -0.88829 0.444145
    outer loop
      vertex 1.55291 6.79556 6
      vertex 0 7 6
      vertex 0 5 2
    endloop
  endfacet
  facet normal 0.116946 -0.88829 0.444145
    outer loop
      vertex 0 5 2
      vertex 0 7 6
      vertex -0.258819 6.96593 6
    endloop
  endfacet
  facet normal 0.116946 -0.88829 0.444145
    outer loop
      vertex -1.29409 4.82963 2
      vertex 0 5 2
      vertex -0.258819 6.96593 6
    endloop
  endfacet
  facet normal 0.116945 -0.88829 0.444145
    outer loop
      vertex -1.29409 4.82963 2
      vertex -0.258819 6.96593 6
      vertex -1.81173 6.76148 6
    endloop
  endfacet
  facet normal 0.342867 -0.827754 0.444145
    outer loop
      vertex -1.29409 4.82963 2
      vertex -1.81173 6.76148 6
      vertex -2.05291 6.66158 6
    endloop
  endfacet
  facet normal 0.342867 -0.827754 0.444145
    outer loop
      vertex -2.5 4.33013 2
      vertex -1.29409 4.82963 2
      vertex -2.05291 6.66158 6
    endloop
  endfacet
  facet normal 0.342867 -0.827754 0.444145
    outer loop
      vertex -2.5 4.33013 2
      vertex -2.05291 6.66158 6
      vertex -3.5 6.06218 6
    endloop
  endfacet
  facet normal 0.545423 -0.710809 0.444145
    outer loop
      vertex -3.53553 3.53553 2
      vertex -2.5 4.33013 2
      vertex -3.5 6.06218 6
    endloop
  endfacet
  facet normal 0.545423 -0.710809 0.444145
    outer loop
      vertex -3.70711 5.90326 6
      vertex -3.53553 3.53553 2
      vertex -3.5 6.06218 6
    endloop
  endfacet
  facet normal 0.545423 -0.710809 0.444145
    outer loop
      vertex -3.53553 3.53553 2
      vertex -3.70711 5.90326 6
      vertex -4.94975 4.94975 6
    endloop
  endfacet
  facet normal 0.710809 -0.545423 0.444145
    outer loop
      vertex -4.33013 2.5 2
      vertex -3.53553 3.53553 2
      vertex -4.94975 4.94975 6
    endloop
  endfacet
  facet normal 0.710809 -0.545423 0.444145
    outer loop
      vertex -5.10867 4.74264 6
      vertex -4.33013 2.5 2
      vertex -4.94975 4.94975 6
    endloop
  endfacet
  facet normal 0.710809 -0.545423 0.444145
    outer loop
      vertex -4.33013 2.5 2
      vertex -5.10867 4.74264 6
      vertex -6.06218 3.5 6
    endloop
  endfacet
  facet normal 0.827754 -0.342867 0.444145
    outer loop
      vertex -4.82963 1.29409 2
      vertex -4.33013 2.5 2
      vertex -6.06218 3.5 6
    endloop
  endfacet
  facet normal 0.827754 -0.342867 0.444145
    outer loop
      vertex -6.16208 3.25882 6
      vertex -4.82963 1.29409 2
      vertex -6.06218 3.5 6
    endloop
  endfacet
  facet normal 0.827754 -0.342867 0.444145
    outer loop
      vertex -4.82963 1.29409 2
      vertex -6.16208 3.25882 6
      vertex -6.76148 1.81173 6
    endloop
  endfacet
  facet normal 0.88829 -0.116946 0.444145
    outer loop
      vertex -5 0 2
      vertex -4.82963 1.29409 2
      vertex -6.76148 1.81173 6
    endloop
  endfacet
  facet normal 0.88829 -0.116946 0.444145
    outer loop
      vertex -6.79556 1.55291 6
      vertex -5 0 2
      vertex -6.76148 1.81173 6
    endloop
  endfacet
  facet normal 0.88829 -0.116945 0.444145
    outer loop
      vertex -5 0 2
      vertex -6.79556 1.55291 6
      vertex -7 0 6
    endloop
  endfacet
  facet normal -0 0 -1
    outer loop
      vertex -10 0 0
      vertex -9.78148 2.07912 0
      vertex -9.78148 -2.07912 0
    endloop
  endfacet
  facet normal 0 -0 -1
    outer loop
      vertex -9.78148 -2.07912 0
      vertex -9.78148 2.07912 0
      vertex -9.13546 4.06737 0
    endloop
  endfacet
  facet normal 0 0 -1
    outer loop
      vertex -9.78148 -2.07912 0
      vertex -9.13546 4.06737 0
      vertex -8.09017 5.87785 0
    endloop
  endfacet
  facet normal 0 0 -1
    outer loop
      vertex -9.78148 -2.07912 0
      vertex -8.09017 5.87785 0
      vertex -6.69131 7.43145 0
    endloop
  endfacet
  facet normal 0 0 -1
    outer loop
      vertex -9.78148 -2.07912 0
      vertex -6.69131 7.43145 0
      vertex -5 8.66025 0
    endloop
  endfacet
  facet normal 0 0 -1
    outer loop
      vertex -9.78148 -2.07912 0
      vertex -5 8.66025 0
      vertex -3.09017 9.51056 0
    endloop
  endfacet
  facet normal 0 0 -1
    outer loop
      vertex -9.78148 -2.07912 0
      vertex -3.09017 9.51056 0
      vertex -1.04529 9.94522 0
    endloop
  endfacet
  facet normal 0 0 -1
    outer loop
      vertex -9.78148 -2.07912 0
      vertex -1.04529 9.94522 0
      vertex 1.04529 9.94522 0
    endloop
  endfacet
  facet normal 0 0 -1
    outer loop
      vertex -9.78148 -2.07912 0
      vertex 1.04529 9.94522 0
      vertex 3.09017 9.51056 0
    endloop
  endfacet
  facet normal 0 0 -1
    outer loop
      vertex -9.78148 -2.07912 0
      vertex 3.09017 9.51056 0
      vertex 5 8.66025 0
    endloop
  endfacet
  facet normal 0 0 -1
    outer loop
      vertex -9.78148 -2.07912 0
      vertex 5 8.66025 0
      vertex 6.69131 7.43145 0
    endloop
  endfacet
  facet normal 0 0 -1
    outer loop
      vertex 0 2.5 0
      vertex 6.69131 7.43145 0
      vertex 8.09017 5.87785 0
    endloop
  endfacet
  facet normal 0 0 -1
    outer loop
      vertex 1.76777 1.76777 0
      vertex 8.09017 5.87785 0
      vertex 9.13546 4.06737 0
    endloop
  endfacet
  facet normal -0 0 -1
    outer loop
      vertex 2.5 0 0
      vertex 9.78148 2.07912 0
      vertex 10 0 0
    endloop
  endfacet
  facet normal -0 0 -1
    outer loop
      vertex 1.76777 -1.76777 0
      vertex 10 0 0
      vertex 9.78148 -2.07912 0
    endloop
  endfacet
  facet normal -0 0 -1
    outer loop
      vertex 0 -2.5 0
      vertex 9.78148 -2.07912 0
      vertex 9.13546 -4.06737 0
    endloop
  endfacet
  facet normal 0 0 -1
    outer loop
      vertex -9.78148 -2.07912 0
      vertex 9.13546 -4.06737 0
      vertex 8.09017 -5.87785 0
    endloop
  endfacet
  facet normal 0 0 -1
    outer loop
      vertex -9.78148 -2.07912 0
      vertex 8.09017 -5.87785 0
      vertex 6.69131 -7.43145 0
    endloop
  endfacet
  facet normal 0 0 -1
    outer loop
      vertex -9.78148 -2.07912 0
      vertex 6.69131 -7.43145 0
      vertex 5 -8.66025 0
    endloop
  endfacet
  facet normal 0 0 -1
    outer loop
      vertex -9.78148 -2.07912 0
      vertex 5 -8.66025 0
      vertex 3.09017 -9.51056 0
    endloop
  endfacet
  facet normal 0 0 -1
    outer loop
      vertex -9.78148 -2.07912 0
      vertex 3.09017 -9.51056 0
      vertex 1.04529 -9.94522 0
    endloop
  endfacet
  facet normal 0 0 -1
    outer loop
      vertex -9.78148 -2.07912 0
      vertex 1.04529 -9.94522 0
      vertex -1.04529 -9.94522 0
    endloop
  endfacet
  facet normal 0 0 -1
    outer loop
      vertex -9.78148 -2.07912 0
      vertex -1.04529 -9.94522 0
      vertex -3.09017 -9.51056 0
    endloop
  endfacet
  facet normal 0 0 -1
    outer loop
      vertex -9.78148 -2.07912 0
      vertex -3.09017 -9.51056 0
      vertex -5 -8.66025 0
    endloop
  endfacet
  facet normal 0 0 -1
    outer loop
      vertex -9.78148 -2.07912 0
      vertex -5 -8.66025 0
      vertex -6.69131 -7.43145 0
    endloop
  endfacet
  facet normal 0 0 -1
    outer loop
      vertex -9.78148 -2.07912 0
      vertex -6.69131 -7.43145 0
      vertex -8.09017 -5.87785 0
    endloop
  endfacet
  facet normal 0 0 -1
    outer loop
      vertex -9.78148 -2.07912 0
      vertex -8.09017 -5.87785 0
      vertex -9.13546 -4.06737 0
    endloop
  endfacet
  facet normal 0 0 -1
    outer loop
      vertex -1.76777 -1.76777 0
      vertex -9.78148 -2.07912 0
      vertex -2.5 0 0
    endloop
  endfacet
  facet normal 0 0 -1
    outer loop
      vertex 0 -2.5 0
      vertex -9.78148 -2.07912 0
      vertex -1.76777 -1.76777 0
    endloop
  endfacet
  facet normal 0 0 -1
    outer loop
      vertex 1.76777 -1.76777 0
      vertex 9.78148 -2.07912 0
      vertex 0 -2.5 0
    endloop
  endfacet
  facet normal 0 0 -1
    outer loop
      vertex -9.78148 -2.07912 0
      vertex 0 -2.5 0
      vertex 9.13546 -4.06737 0
    endloop
  endfacet
  facet normal -0 0 -1
    outer loop
      vertex 1.76777 1.76777 0
      vertex 9.78148 2.07912 0
      vertex 2.5 0 0
    endloop
  endfacet
  facet normal 0 0 -1
    outer loop
      vertex 2.5 0 0
      vertex 10 0 0
      vertex 1.76777 -1.76777 0
    endloop
  endfacet
  facet normal 0 0 -1
    outer loop
      vertex 1.76777 1.76777 0
      vertex 9.13546 4.06737 0
      vertex 9.78148 2.07912 0
    endloop
  endfacet
  facet normal 0 0 -1
    outer loop
      vertex -1.76777 1.76777 0
      vertex 6.69131 7.43145 0
      vertex 0 2.5 0
    endloop
  endfacet
  facet normal 0 0 -1
    outer loop
      vertex -9.78148 -2.07912 0
      vertex 6.69131 7.43145 0
      vertex -1.76777 1.76777 0
    endloop
  endfacet
  facet normal 0 -0 -1
    outer loop
      vertex -2.5 0 0
      vertex -9.78148 -2.07912 0
      vertex -1.76777 1.76777 0
    endloop
  endfacet
  facet normal -0 0 -1
    outer loop
      vertex 0 2.5 0
      vertex 8.09017 5.87785 0
      vertex 1.76777 1.76777 0
    endloop
  endfacet
  facet normal 0 0 1
    outer loop
      vertex -4.82963 -1.29409 2
      vertex -4.33013 -2.5 2
      vertex -3.53553 -3.53553 2
    endloop
  endfacet
  facet normal 0 0 1
    outer loop
      vertex -1.29409 -4.82963 2
      vertex -4.82963 -1.29409 2
      vertex -2.5 -4.33013 2
    endloop
  endfacet
  facet normal 0 0 1
    outer loop
      vertex -2.5 -4.33013 2
      vertex -4.82963 -1.29409 2
      vertex -3.53553 -3.53553 2
    endloop
  endfacet
  facet normal 0 0 1
    outer loop
      vertex 0 -5 2
      vertex -4.82963 -1.29409 2
      vertex -1.29409 -4.82963 2
    endloop
  endfacet
  facet normal -0 0 1
    outer loop
      vertex 1.29409 -4.82963 2
      vertex -4.82963 -1.29409 2
      vertex 0 -5 2
    endloop
  endfacet
  facet normal -0 0 1
    outer loop
      vertex 2.5 -4.33013 2
      vertex -4.82963 -1.29409 2
      vertex 1.29409 -4.82963 2
    endloop
  endfacet
  facet normal -0 0 1
    outer loop
      vertex 3.53553 -3.53553 2
      vertex -4.82963 -1.29409 2
      vertex 2.5 -4.33013 2
    endloop
  endfacet
  facet normal -0 -0 1
    outer loop
      vertex 0 -2.5 2
      vertex -4.82963 -1.29409 2
      vertex 3.53553 -3.53553 2
    endloop
  endfacet
  facet normal -0 0 1
    outer loop
      vertex -2.5 0 2
      vertex -1.76777 1.76777 2
      vertex -4.82963 -1.29409 2
    endloop
  endfacet
  facet normal 0 0 1
    outer loop
      vertex 1.76777 1.76777 2
      vertex 2.5 0 2
      vertex 4.82963 1.29409 2
    endloop
  endfacet
  facet normal 0 0 1
    outer loop
      vertex 0 2.5 2
      vertex 3.53553 3.53553 2
      vertex 2.5 4.33013 2
    endloop
  endfacet
  facet normal 0 0 1
    outer loop
      vertex 0 2.5 2
      vertex 1.76777 1.76777 2
      vertex 3.53553 3.53553 2
    endloop
  endfacet
  facet normal 0 -0 1
    outer loop
      vertex 1.29409 4.82963 2
      vertex -1.76777 1.76777 2
      vertex 2.5 4.33013 2
    endloop
  endfacet
  facet normal 0 -0 1
    outer loop
      vertex -1.29409 4.82963 2
      vertex -4.82963 -1.29409 2
      vertex 0 5 2
    endloop
  endfacet
  facet normal 0 -0 1
    outer loop
      vertex -2.5 4.33013 2
      vertex -4.82963 -1.29409 2
      vertex -1.29409 4.82963 2
    endloop
  endfacet
  facet normal 0 -0 1
    outer loop
      vertex -3.53553 3.53553 2
      vertex -4.82963 -1.29409 2
      vertex -2.5 4.33013 2
    endloop
  endfacet
  facet normal 0 -0 1
    outer loop
      vertex -4.33013 2.5 2
      vertex -4.82963 -1.29409 2
      vertex -3.53553 3.53553 2
    endloop
  endfacet
  facet normal 0 -0 1
    outer loop
      vertex -4.82963 1.29409 2
      vertex -4.82963 -1.29409 2
      vertex -4.33013 2.5 2
    endloop
  endfacet
  facet normal 0 0 1
    outer loop
      vertex -5 0 2
      vertex -4.82963 -1.29409 2
      vertex -4.82963 1.29409 2
    endloop
  endfacet
  facet normal 0 -0 1
    outer loop
      vertex 0 5 2
      vertex -1.76777 1.76777 2
      vertex 1.29409 4.82963 2
    endloop
  endfacet
  facet normal 0 0 1
    outer loop
      vertex 0 5 2
      vertex -4.82963 -1.29409 2
      vertex -1.76777 1.76777 2
    endloop
  endfacet
  facet normal 0 0 1
    outer loop
      vertex -1.76777 1.76777 2
      vertex 0 2.5 2
      vertex 2.5 4.33013 2
    endloop
  endfacet
  facet normal 0 -0 1
    outer loop
      vertex 3.53553 3.53553 2
      vertex 1.76777 1.76777 2
      vertex 4.33013 2.5 2
    endloop
  endfacet
  facet normal 0 -0 1
    outer loop
      vertex 4.82963 1.29409 2
      vertex 2.5 0 2
      vertex 5 0 2
    endloop
  endfacet
  facet normal 0 0 1
    outer loop
      vertex 1.76777 1.76777 2
      vertex 4.82963 1.29409 2
      vertex 4.33013 2.5 2
    endloop
  endfacet
  facet normal 0 0 1
    outer loop
      vertex 4.82963 -1.29409 2
      vertex 1.76777 -1.76777 2
      vertex 4.33013 -2.5 2
    endloop
  endfacet
  facet normal 0 0 1
    outer loop
      vertex 4.33013 -2.5 2
      vertex 0 -2.5 2
      vertex 3.53553 -3.53553 2
    endloop
  endfacet
  facet normal -0 -0 1
    outer loop
      vertex -1.76777 -1.76777 2
      vertex -4.82963 -1.29409 2
      vertex 0 -2.5 2
    endloop
  endfacet
  facet normal 0 -0 1
    outer loop
      vertex 2.5 0 2
      vertex 1.76777 -1.76777 2
      vertex 4.82963 -1.29409 2
    endloop
  endfacet
  facet normal 0 0 1
    outer loop
      vertex 2.5 0 2
      vertex 4.82963 -1.29409 2
      vertex 5 0 2
    endloop
  endfacet
  facet normal 0 -0 1
    outer loop
      vertex 1.76777 -1.76777 2
      vertex 0 -2.5 2
      vertex 4.33013 -2.5 2
    endloop
  endfacet
  facet normal 0 0 1
    outer loop
      vertex -1.76777 -1.76777 2
      vertex -2.5 0 2
      vertex -4.82963 -1.29409 2
    endloop
  endfacet
  facet normal 0.92388 -0.382683 0
    outer loop
      vertex -1.76777 1.76777 0
      vertex -1.76777 1.76777 2
      vertex -2.5 0 2
    endloop
  endfacet
  facet normal 0.92388 -0.382683 0
    outer loop
      vertex -2.5 0 0
      vertex -1.76777 1.76777 0
      vertex -2.5 0 2
    endloop
  endfacet
  facet normal 0.92388 0.382683 0
    outer loop
      vertex -2.5 0 2
      vertex -1.76777 -1.76777 2
      vertex -1.76777 -1.76777 0
    endloop
  endfacet
  facet normal 0.92388 0.382683 0
    outer loop
      vertex -2.5 0 0
      vertex -2.5 0 2
      vertex -1.76777 -1.76777 0
    endloop
  endfacet
  facet normal 0.382683 -0.92388 0
    outer loop
      vertex 0 2.5 0
      vertex 0 2.5 2
      vertex -1.76777 1.76777 2
    endloop
  endfacet
  facet normal 0.382683 -0.92388 0
    outer loop
      vertex -1.76777 1.76777 0
      vertex 0 2.5 0
      vertex -1.76777 1.76777 2
    endloop
  endfacet
  facet normal -0.382683 -0.92388 -0
    outer loop
      vertex 1.76777 1.76777 0
      vertex 1.76777 1.76777 2
      vertex 0 2.5 2
    endloop
  endfacet
  facet normal -0.382683 -0.92388 -0
    outer loop
      vertex 0 2.5 0
      vertex 1.76777 1.76777 0
      vertex 0 2.5 2
    endloop
  endfacet
  facet normal -0.92388 -0.382683 0
    outer loop
      vertex 2.5 0 2
      vertex 1.76777 1.76777 2
      vertex 2.5 0 0
    endloop
  endfacet
  facet normal -0.92388 -0.382683 0
    outer loop
      vertex 2.5 0 0
      vertex 1.76777 1.76777 2
      vertex 1.76777 1.76777 0
    endloop
  endfacet
  facet normal -0.92388 0.382683 0
    outer loop
      vertex 2.5 0 2
      vertex 2.5 0 0
      vertex 1.76777 -1.76777 2
    endloop
  endfacet
  facet normal -0.92388 0.382683 0
    outer loop
      vertex 1.76777 -1.76777 2
      vertex 2.5 0 0
      vertex 1.76777 -1.76777 0
    endloop
  endfacet
  facet normal -0.382683 0.92388 0
    outer loop
      vertex 1.76777 -1.76777 2
      vertex 1.76777 -1.76777 0
      vertex 0 -2.5 2
    endloop
  endfacet
  facet normal -0.382683 0.92388 0
    outer loop
      vertex 0 -2.5 2
      vertex 1.76777 -1.76777 0
      vertex 0 -2.5 0
    endloop
  endfacet
  facet normal 0.382683 0.92388 -0
    outer loop
      vertex 0 -2.5 2
      vertex 0 -2.5 0
      vertex -1.76777 -1.76777 2
    endloop
  endfacet
  facet normal 0.382683 0.92388 -0
    outer loop
      vertex -1.76777 -1.76777 2
      vertex 0 -2.5 0
      vertex -1.76777 -1.76777 0
    endloop
  endfacet
endsolid OpenSCAD_Model
