solid OpenSCAD_Model
  facet normal -0.994522 0.104528 0
    outer loop
      vertex -10 0 0
      vertex -10 0 18
      vertex -9.78148 2.07912 0
    endloop
  endfacet
  facet normal -0.994522 0.104528 0
    outer loop
      vertex -9.78148 2.07912 0
      vertex -10 0 18
      vertex -9.78148 2.07912 18
    endloop
  endfacet
  facet normal -0.994522 -0.104528 -0
    outer loop
      vertex -10 0 0
      vertex -9.78148 -2.07912 0
      vertex -10 0 18
    endloop
  endfacet
  facet normal -0.994522 -0.104528 0
    outer loop
      vertex -10 0 18
      vertex -9.78148 -2.07912 0
      vertex -9.78148 -2.07912 18
    endloop
  endfacet
  facet normal -0 0 -1
    outer loop
      vertex -10 0 0
      vertex -9.78148 2.07912 0
      vertex -9.78148 -2.07912 0
    endloop
  endfacet
  facet normal 0 -0 -1
    outer loop
      vertex -9.78148 -2.07912 0
      vertex -9.78148 2.07912 0
      vertex -9.13546 4.06737 0
    endloop
  endfacet
  facet normal 0 0 -1
    outer loop
      vertex -9.78148 -2.07912 0
      vertex -9.13546 4.06737 0
      vertex -8.09017 5.87785 0
    endloop
  endfacet
  facet normal 0 0 -1
    outer loop
      vertex -9.78148 -2.07912 0
      vertex -8.09017 5.87785 0
      vertex -6.69131 7.43145 0
    endloop
  endfacet
  facet normal 0 0 -1
    outer loop
      vertex -9.78148 -2.07912 0
      vertex -6.69131 7.43145 0
      vertex -5 8.66025 0
    endloop
  endfacet
  facet normal 0 0 -1
    outer loop
      vertex -9.78148 -2.07912 0
      vertex -5 8.66025 0
      vertex -3.09017 9.51056 0
    endloop
  endfacet
  facet normal 0 0 -1
    outer loop
      vertex -9.78148 -2.07912 0
      vertex -3.09017 9.51056 0
      vertex -1.04529 9.94522 0
    endloop
  endfacet
  facet normal 0 0 -1
    outer loop
      vertex -9.78148 -2.07912 0
      vertex -1.04529 9.94522 0
      vertex 1.04529 9.94522 0
    endloop
  endfacet
  facet normal 0 0 -1
    outer loop
      vertex -9.78148 -2.07912 0
      vertex 1.04529 9.94522 0
      vertex 3.09017 9.51056 0
    endloop
  endfacet
  facet normal 0 0 -1
    outer loop
      vertex -9.78148 -2.07912 0
      vertex 3.09017 9.51056 0
      vertex 5 8.66025 0
    endloop
  endfacet
  facet normal 0 0 -1
    outer loop
      vertex -9.78148 -2.07912 0
      vertex 5 8.66025 0
      vertex 6.69131 7.43145 0
    endloop
  endfacet
  facet normal 0 0 -1
    outer loop
      vertex 0 2.5 0
      vertex 6.69131 7.43145 0
      vertex 8.09017 5.87785 0
    endloop
  endfacet
  facet normal 0 0 -1
    outer loop
      vertex 1.76777 1.76777 0
      vertex 8.09017 5.87785 0
      vertex 9.13546 4.06737 0
    endloop
  endfacet
  facet normal -0 0 -1
    outer loop
      vertex 2.5 0 0
      vertex 9.78148 2.07912 0
      vertex 10 0 0
    endloop
  endfacet
  facet normal -0 0 -1
    outer loop
      vertex 1.76777 -1.76777 0
      vertex 10 0 0
      vertex 9.78148 -2.07912 0
    endloop
  endfacet
  facet normal -0 0 -1
    outer loop
      vertex 0 -2.5 0
      vertex 9.78148 -2.07912 0
      vertex 9.13546 -4.06737 0
    endloop
  endfacet
  facet normal 0 0 -1
    outer loop
      vertex -9.78148 -2.07912 0
      vertex 9.13546 -4.06737 0
      vertex 8.09017 -5.87785 0
    endloop
  endfacet
  facet normal 0 0 -1
    outer loop
      vertex -9.78148 -2.07912 0
      vertex 8.09017 -5.87785 0
      vertex 6.69131 -7.43145 0
    endloop
  endfacet
  facet normal 0 0 -1
    outer loop
      vertex -9.78148 -2.07912 0
      vertex 6.69131 -7.43145 0
      vertex 5 -8.66025 0
    endloop
  endfacet
  facet normal 0 0 -1
    outer loop
      vertex -9.78148 -2.07912 0
      vertex 5 -8.66025 0
      vertex 3.09017 -9.51056 0
    endloop
  endfacet
  facet normal 0 0 -1
    outer loop
      vertex -9.78148 -2.07912 0
      vertex 3.09017 -9.51056 0
      vertex 1.04529 -9.94522 0
    endloop
  endfacet
  facet normal 0 0 -1
    outer loop
      vertex -9.78148 -2.07912 0
      vertex 1.04529 -9.94522 0
      vertex -1.04529 -9.94522 0
    endloop
  endfacet
  facet normal 0 0 -1
    outer loop
      vertex -9.78148 -2.07912 0
      vertex -1.04529 -9.94522 0
      vertex -3.09017 -9.51056 0
    endloop
  endfacet
  facet normal 0 0 -1
    outer loop
      vertex -9.78148 -2.07912 0
      vertex -3.09017 -9.51056 0
      vertex -5 -8.66025 0
    endloop
  endfacet
  facet normal 0 0 -1
    outer loop
      vertex -9.78148 -2.07912 0
      vertex -5 -8.66025 0
      vertex -6.69131 -7.43145 0
    endloop
  endfacet
  facet normal 0 0 -1
    outer loop
      vertex -9.78148 -2.07912 0
      vertex -6.69131 -7.43145 0
      vertex -8.09017 -5.87785 0
    endloop
  endfacet
  facet normal 0 0 -1
    outer loop
      vertex -9.78148 -2.07912 0
      vertex -8.09017 -5.87785 0
      vertex -9.13546 -4.06737 0
    endloop
  endfacet
  facet normal 0 0 -1
    outer loop
      vertex -1.76777 -1.76777 0
      vertex -9.78148 -2.07912 0
      vertex -2.5 0 0
    endloop
  endfacet
  facet normal 0 0 -1
    outer loop
      vertex 0 -2.5 0
      vertex -9.78148 -2.07912 0
      vertex -1.76777 -1.76777 0
    endloop
  endfacet
  facet normal 0 0 -1
    outer loop
      vertex 1.76777 -1.76777 0
      vertex 9.78148 -2.07912 0
      vertex 0 -2.5 0
    endloop
  endfacet
  facet normal 0 0 -1
    outer loop
      vertex -9.78148 -2.07912 0
      vertex 0 -2.5 0
      vertex 9.13546 -4.06737 0
    endloop
  endfacet
  facet normal -0 0 -1
    outer loop
      vertex 1.76777 1.76777 0
      vertex 9.78148 2.07912 0
      vertex 2.5 0 0
    endloop
  endfacet
  facet normal 0 0 -1
    outer loop
      vertex 2.5 0 0
      vertex 10 0 0
      vertex 1.76777 -1.76777 0
    endloop
  endfacet
  facet normal 0 0 -1
    outer loop
      vertex 1.76777 1.76777 0
      vertex 9.13546 4.06737 0
      vertex 9.78148 2.07912 0
    endloop
  endfacet
  facet normal 0 0 -1
    outer loop
      vertex -1.76777 1.76777 0
      vertex 6.69131 7.43145 0
      vertex 0 2.5 0
    endloop
  endfacet
  facet normal 0 0 -1
    outer loop
      vertex -9.78148 -2.07912 0
      vertex 6.69131 7.43145 0
      vertex -1.76777 1.76777 0
    endloop
  endfacet
  facet normal 0 -0 -1
    outer loop
      vertex -2.5 0 0
      vertex -9.78148 -2.07912 0
      vertex -1.76777 1.76777 0
    endloop
  endfacet
  facet normal -0 0 -1
    outer loop
      vertex 0 2.5 0
      vertex 8.09017 5.87785 0
      vertex 1.76777 1.76777 0
    endloop
  endfacet
  facet normal -0.951057 0.309017 0
    outer loop
      vertex -9.78148 2.07912 0
      vertex -9.78148 2.07912 18
      vertex -9.13546 4.06737 0
    endloop
  endfacet
  facet normal -0.951057 0.309017 0
    outer loop
      vertex -9.56349 2.75 16
      vertex -9.78148 2.07912 18
      vertex -9.56349 2.75 18
    endloop
  endfacet
  facet normal -0.951057 0.309017 1.48495e-16
    outer loop
      vertex -9.13546 4.06737 0
      vertex -9.78148 2.07912 18
      vertex -9.56349 2.75 16
    endloop
  endfacet
  facet normal -0.951057 0.309017 0
    outer loop
      vertex -9.13546 4.06737 16
      vertex -9.13546 4.06737 0
      vertex -9.56349 2.75 16
    endloop
  endfacet
  facet normal 0 0 1
    outer loop
      vertex -9.78148 2.07912 18
      vertex -10 0 18
      vertex -9.78148 -2.07912 18
    endloop
  endfacet
  facet normal -0 0 1
    outer loop
      vertex -1.76777 -1.76777 18
      vertex -9.78148 2.07912 18
      vertex -9.56349 -2.75 18
    endloop
  endfacet
  facet normal 0 0 1
    outer loop
      vertex -9.56349 -2.75 18
      vertex -9.78148 2.07912 18
      vertex -9.78148 -2.07912 18
    endloop
  endfacet
  facet normal 0 0 1
    outer loop
      vertex -1.76777 1.76777 18
      vertex 0 2.5 18
      vertex -9.78148 2.07912 18
    endloop
  endfacet
  facet normal 0 0 1
    outer loop
      vertex 0 2.5 18
      vertex 9.78148 2.07912 18
      vertex 9.56349 2.75 18
    endloop
  endfacet
  facet normal 0 0 1
    outer loop
      vertex 0 2.5 18
      vertex 1.76777 1.76777 18
      vertex 9.78148 2.07912 18
    endloop
  endfacet
  facet normal -0 0 1
    outer loop
      vertex 0 -2.5 18
      vertex -1.76777 -1.76777 18
      vertex -9.56349 -2.75 18
    endloop
  endfacet
  facet normal -0 -0 1
    outer loop
      vertex -2.5 0 18
      vertex -9.78148 2.07912 18
      vertex -1.76777 -1.76777 18
    endloop
  endfacet
  facet normal 0 -0 1
    outer loop
      vertex 2.5 0 18
      vertex 1.76777 -1.76777 18
      vertex 9.56349 -2.75 18
    endloop
  endfacet
  facet normal 0 0 1
    outer loop
      vertex -9.56349 2.75 18
      vertex 0 2.5 18
      vertex 9.56349 2.75 18
    endloop
  endfacet
  facet normal 0 -0 1
    outer loop
      vertex -9.56349 2.75 18
      vertex -9.78148 2.07912 18
      vertex 0 2.5 18
    endloop
  endfacet
  facet normal 0 -0 1
    outer loop
      vertex 9.78148 2.07912 18
      vertex 1.76777 1.76777 18
      vertex 10 0 18
    endloop
  endfacet
  facet normal 0 0 1
    outer loop
      vertex 10 0 18
      vertex 2.5 0 18
      vertex 9.78148 -2.07912 18
    endloop
  endfacet
  facet normal 0 0 1
    outer loop
      vertex 1.76777 1.76777 18
      vertex 2.5 0 18
      vertex 10 0 18
    endloop
  endfacet
  facet normal -0 0 1
    outer loop
      vertex 9.56349 -2.75 18
      vertex 0 -2.5 18
      vertex -9.56349 -2.75 18
    endloop
  endfacet
  facet normal 0 0 1
    outer loop
      vertex 2.5 0 18
      vertex 9.56349 -2.75 18
      vertex 9.78148 -2.07912 18
    endloop
  endfacet
  facet normal 0 -0 1
    outer loop
      vertex 1.76777 -1.76777 18
      vertex 0 -2.5 18
      vertex 9.56349 -2.75 18
    endloop
  endfacet
  facet normal 0 0 1
    outer loop
      vertex -2.5 0 18
      vertex -1.76777 1.76777 18
      vertex -9.78148 2.07912 18
    endloop
  endfacet
  facet normal -0.951057 -0.309017 -0
    outer loop
      vertex -9.78148 -2.07912 0
      vertex -9.13546 -4.06737 0
      vertex -9.78148 -2.07912 18
    endloop
  endfacet
  facet normal -0.951057 -0.309017 0
    outer loop
      vertex -9.56349 -2.75 16
      vertex -9.13546 -4.06737 0
      vertex -9.13546 -4.06737 16
    endloop
  endfacet
  facet normal -0.951057 -0.309017 1.64994e-16
    outer loop
      vertex -9.78148 -2.07912 18
      vertex -9.13546 -4.06737 0
      vertex -9.56349 -2.75 16
    endloop
  endfacet
  facet normal -0.951057 -0.309017 0
    outer loop
      vertex -9.56349 -2.75 18
      vertex -9.78148 -2.07912 18
      vertex -9.56349 -2.75 16
    endloop
  endfacet
  facet normal -0.866025 -0.5 -0
    outer loop
      vertex -9.13546 -4.06737 0
      vertex -8.09017 -5.87785 0
      vertex -9.13546 -4.06737 16
    endloop
  endfacet
  facet normal -0.866025 -0.5 0
    outer loop
      vertex -9.13546 -4.06737 16
      vertex -8.09017 -5.87785 0
      vertex -8.09017 -5.87785 16
    endloop
  endfacet
  facet normal -0.743145 -0.669131 -0
    outer loop
      vertex -8.09017 -5.87785 0
      vertex -6.69131 -7.43145 0
      vertex -8.09017 -5.87785 16
    endloop
  endfacet
  facet normal -0.743145 -0.669131 0
    outer loop
      vertex -8.09017 -5.87785 16
      vertex -6.69131 -7.43145 0
      vertex -6.69131 -7.43145 16
    endloop
  endfacet
  facet normal -0.587785 -0.809017 0
    outer loop
      vertex -6.69131 -7.43145 16
      vertex -6.69131 -7.43145 0
      vertex -5 -8.66025 0
    endloop
  endfacet
  facet normal -0.587785 -0.809017 0
    outer loop
      vertex -5 -8.66025 16
      vertex -6.69131 -7.43145 16
      vertex -5 -8.66025 0
    endloop
  endfacet
  facet normal -0.406737 -0.913545 0
    outer loop
      vertex -5 -8.66025 16
      vertex -5 -8.66025 0
      vertex -3.09017 -9.51056 0
    endloop
  endfacet
  facet normal -0.406737 -0.913545 0
    outer loop
      vertex -3.09017 -9.51056 16
      vertex -5 -8.66025 16
      vertex -3.09017 -9.51056 0
    endloop
  endfacet
  facet normal -0.207912 -0.978148 0
    outer loop
      vertex -3.09017 -9.51056 16
      vertex -3.09017 -9.51056 0
      vertex -1.04529 -9.94522 0
    endloop
  endfacet
  facet normal -0.207912 -0.978148 0
    outer loop
      vertex -1.04529 -9.94522 16
      vertex -3.09017 -9.51056 16
      vertex -1.04529 -9.94522 0
    endloop
  endfacet
  facet normal 0 -1 0
    outer loop
      vertex -1.04529 -9.94522 16
      vertex -1.04529 -9.94522 0
      vertex 1.04529 -9.94522 0
    endloop
  endfacet
  facet normal 0 -1 0
    outer loop
      vertex 1.04529 -9.94522 16
      vertex -1.04529 -9.94522 16
      vertex 1.04529 -9.94522 0
    endloop
  endfacet
  facet normal 0.207912 -0.978148 0
    outer loop
      vertex 1.04529 -9.94522 16
      vertex 1.04529 -9.94522 0
      vertex 3.09017 -9.51056 0
    endloop
  endfacet
  facet normal 0.207912 -0.978148 0
    outer loop
      vertex 3.09017 -9.51056 16
      vertex 1.04529 -9.94522 16
      vertex 3.09017 -9.51056 0
    endloop
  endfacet
  facet normal 0.406737 -0.913545 0
    outer loop
      vertex 3.09017 -9.51056 16
      vertex 3.09017 -9.51056 0
      vertex 5 -8.66025 0
    endloop
  endfacet
  facet normal 0.406737 -0.913545 0
    outer loop
      vertex 5 -8.66025 16
      vertex 3.09017 -9.51056 16
      vertex 5 -8.66025 0
    endloop
  endfacet
  facet normal 0.587785 -0.809017 0
    outer loop
      vertex 5 -8.66025 16
      vertex 5 -8.66025 0
      vertex 6.69131 -7.43145 0
    endloop
  endfacet
  facet normal 0.587785 -0.809017 0
    outer loop
      vertex 6.69131 -7.43145 16
      vertex 5 -8.66025 16
      vertex 6.69131 -7.43145 0
    endloop
  endfacet
  facet normal 0.743145 -0.669131 0
    outer loop
      vertex 6.69131 -7.43145 16
      vertex 6.69131 -7.43145 0
      vertex 8.09017 -5.87785 0
    endloop
  endfacet
  facet normal 0.743145 -0.669131 0
    outer loop
      vertex 8.09017 -5.87785 16
      vertex 6.69131 -7.43145 16
      vertex 8.09017 -5.87785 0
    endloop
  endfacet
  facet normal 0.866025 -0.5 0
    outer loop
      vertex 8.09017 -5.87785 16
      vertex 8.09017 -5.87785 0
      vertex 9.13546 -4.06737 0
    endloop
  endfacet
  facet normal 0.866025 -0.5 0
    outer loop
      vertex 9.13546 -4.06737 16
      vertex 8.09017 -5.87785 16
      vertex 9.13546 -4.06737 0
    endloop
  endfacet
  facet normal 0.951057 -0.309017 0
    outer loop
      vertex 9.13546 -4.06737 16
      vertex 9.13546 -4.06737 0
      vertex 9.78148 -2.07912 0
    endloop
  endfacet
  facet normal 0.951057 -0.309017 6.01134e-17
    outer loop
      vertex 9.56349 -2.75 16
      vertex 9.13546 -4.06737 16
      vertex 9.78148 -2.07912 0
    endloop
  endfacet
  facet normal 0.951057 -0.309017 0
    outer loop
      vertex 9.78148 -2.07912 18
      vertex 9.56349 -2.75 16
      vertex 9.78148 -2.07912 0
    endloop
  endfacet
  facet normal 0.951057 -0.309017 0
    outer loop
      vertex 9.56349 -2.75 18
      vertex 9.56349 -2.75 16
      vertex 9.78148 -2.07912 18
    endloop
  endfacet
  facet normal 0.994522 -0.104528 0
    outer loop
      vertex 9.78148 -2.07912 18
      vertex 9.78148 -2.07912 0
      vertex 10 0 0
    endloop
  endfacet
  facet normal 0.994522 -0.104528 0
    outer loop
      vertex 10 0 18
      vertex 9.78148 -2.07912 18
      vertex 10 0 0
    endloop
  endfacet
  facet normal 0.994522 0.104528 0
    outer loop
      vertex 10 0 0
      vertex 9.78148 2.07912 0
      vertex 9.78148 2.07912 18
    endloop
  endfacet
  facet normal 0.994522 0.104528 -0
    outer loop
      vertex 10 0 18
      vertex 10 0 0
      vertex 9.78148 2.07912 18
    endloop
  endfacet
  facet normal 0.951057 0.309017 0
    outer loop
      vertex 9.78148 2.07912 0
      vertex 9.13546 4.06737 0
      vertex 9.13546 4.06737 16
    endloop
  endfacet
  facet normal 0.951057 0.309017 -0
    outer loop
      vertex 9.56349 2.75 18
      vertex 9.78148 2.07912 0
      vertex 9.56349 2.75 16
    endloop
  endfacet
  facet normal 0.951057 0.309017 6.01134e-17
    outer loop
      vertex 9.56349 2.75 16
      vertex 9.78148 2.07912 0
      vertex 9.13546 4.06737 16
    endloop
  endfacet
  facet normal 0.951057 0.309017 -0
    outer loop
      vertex 9.78148 2.07912 18
      vertex 9.78148 2.07912 0
      vertex 9.56349 2.75 18
    endloop
  endfacet
  facet normal 0.866025 0.5 0
    outer loop
      vertex 9.13546 4.06737 0
      vertex 8.09017 5.87785 0
      vertex 8.09017 5.87785 16
    endloop
  endfacet
  facet normal 0.866025 0.5 -0
    outer loop
      vertex 9.13546 4.06737 16
      vertex 9.13546 4.06737 0
      vertex 8.09017 5.87785 16
    endloop
  endfacet
  facet normal 0.743145 0.669131 0
    outer loop
      vertex 8.09017 5.87785 0
      vertex 6.69131 7.43145 0
      vertex 6.69131 7.43145 16
    endloop
  endfacet
  facet normal 0.743145 0.669131 -0
    outer loop
      vertex 8.09017 5.87785 16
      vertex 8.09017 5.87785 0
      vertex 6.69131 7.43145 16
    endloop
  endfacet
  facet normal 0.587785 0.809017 0
    outer loop
      vertex 5 8.66025 0
      vertex 5 8.66025 16
      vertex 6.69131 7.43145 0
    endloop
  endfacet
  facet normal 0.587785 0.809017 0
    outer loop
      vertex 6.69131 7.43145 0
      vertex 5 8.66025 16
      vertex 6.69131 7.43145 16
    endloop
  endfacet
  facet normal 0.406737 0.913545 0
    outer loop
      vertex 3.09017 9.51056 0
      vertex 3.09017 9.51056 16
      vertex 5 8.66025 0
    endloop
  endfacet
  facet normal 0.406737 0.913545 0
    outer loop
      vertex 5 8.66025 0
      vertex 3.09017 9.51056 16
      vertex 5 8.66025 16
    endloop
  endfacet
  facet normal 0.207912 0.978148 0
    outer loop
      vertex 1.04529 9.94522 0
      vertex 1.04529 9.94522 16
      vertex 3.09017 9.51056 0
    endloop
  endfacet
  facet normal 0.207912 0.978148 0
    outer loop
      vertex 3.09017 9.51056 0
      vertex 1.04529 9.94522 16
      vertex 3.09017 9.51056 16
    endloop
  endfacet
  facet normal 0 1 0
    outer loop
      vertex -1.04529 9.94522 0
      vertex -1.04529 9.94522 16
      vertex 1.04529 9.94522 0
    endloop
  endfacet
  facet normal 0 1 0
    outer loop
      vertex 1.04529 9.94522 0
      vertex -1.04529 9.94522 16
      vertex 1.04529 9.94522 16
    endloop
  endfacet
  facet normal -0.207912 0.978148 0
    outer loop
      vertex -3.09017 9.51056 0
      vertex -3.09017 9.51056 16
      vertex -1.04529 9.94522 0
    endloop
  endfacet
  facet normal -0.207912 0.978148 0
    outer loop
      vertex -1.04529 9.94522 0
      vertex -3.09017 9.51056 16
      vertex -1.04529 9.94522 16
    endloop
  endfacet
  facet normal -0.406737 0.913545 0
    outer loop
      vertex -5 8.66025 0
      vertex -5 8.66025 16
      vertex -3.09017 9.51056 0
    endloop
  endfacet
  facet normal -0.406737 0.913545 0
    outer loop
      vertex -3.09017 9.51056 0
      vertex -5 8.66025 16
      vertex -3.09017 9.51056 16
    endloop
  endfacet
  facet normal -0.587785 0.809017 0
    outer loop
      vertex -6.69131 7.43145 0
      vertex -6.69131 7.43145 16
      vertex -5 8.66025 0
    endloop
  endfacet
  facet normal -0.587785 0.809017 0
    outer loop
      vertex -5 8.66025 0
      vertex -6.69131 7.43145 16
      vertex -5 8.66025 16
    endloop
  endfacet
  facet normal -0.743145 0.669131 0
    outer loop
      vertex -8.09017 5.87785 0
      vertex -8.09017 5.87785 16
      vertex -6.69131 7.43145 0
    endloop
  endfacet
  facet normal -0.743145 0.669131 0
    outer loop
      vertex -6.69131 7.43145 0
      vertex -8.09017 5.87785 16
      vertex -6.69131 7.43145 16
    endloop
  endfacet
  facet normal -0.866025 0.5 0
    outer loop
      vertex -9.13546 4.06737 0
      vertex -9.13546 4.06737 16
      vertex -8.09017 5.87785 0
    endloop
  endfacet
  facet normal -0.866025 0.5 0
    outer loop
      vertex -8.09017 5.87785 0
      vertex -9.13546 4.06737 16
      vertex -8.09017 5.87785 16
    endloop
  endfacet
  facet normal 0.92388 -0.382683 0
    outer loop
      vertex -1.76777 1.76777 0
      vertex -1.76777 1.76777 18
      vertex -2.5 0 18
    endloop
  endfacet
  facet normal 0.92388 -0.382683 0
    outer loop
      vertex -2.5 0 0
      vertex -1.76777 1.76777 0
      vertex -2.5 0 18
    endloop
  endfacet
  facet normal 0.92388 0.382683 0
    outer loop
      vertex -2.5 0 18
      vertex -1.76777 -1.76777 18
      vertex -1.76777 -1.76777 0
    endloop
  endfacet
  facet normal 0.92388 0.382683 0
    outer loop
      vertex -2.5 0 0
      vertex -2.5 0 18
      vertex -1.76777 -1.76777 0
    endloop
  endfacet
  facet normal 0.382683 -0.92388 0
    outer loop
      vertex 0 2.5 0
      vertex 0 2.5 18
      vertex -1.76777 1.76777 18
    endloop
  endfacet
  facet normal 0.382683 -0.92388 0
    outer loop
      vertex -1.76777 1.76777 0
      vertex 0 2.5 0
      vertex -1.76777 1.76777 18
    endloop
  endfacet
  facet normal -0.382683 -0.92388 -0
    outer loop
      vertex 1.76777 1.76777 0
      vertex 1.76777 1.76777 18
      vertex 0 2.5 18
    endloop
  endfacet
  facet normal -0.382683 -0.92388 -0
    outer loop
      vertex 0 2.5 0
      vertex 1.76777 1.76777 0
      vertex 0 2.5 18
    endloop
  endfacet
  facet normal -0.92388 -0.382683 0
    outer loop
      vertex 2.5 0 18
      vertex 1.76777 1.76777 18
      vertex 2.5 0 0
    endloop
  endfacet
  facet normal -0.92388 -0.382683 0
    outer loop
      vertex 2.5 0 0
      vertex 1.76777 1.76777 18
      vertex 1.76777 1.76777 0
    endloop
  endfacet
  facet normal -0.92388 0.382683 0
    outer loop
      vertex 2.5 0 18
      vertex 2.5 0 0
      vertex 1.76777 -1.76777 18
    endloop
  endfacet
  facet normal -0.92388 0.382683 0
    outer loop
      vertex 1.76777 -1.76777 18
      vertex 2.5 0 0
      vertex 1.76777 -1.76777 0
    endloop
  endfacet
  facet normal -0.382683 0.92388 0
    outer loop
      vertex 1.76777 -1.76777 18
      vertex 1.76777 -1.76777 0
      vertex 0 -2.5 18
    endloop
  endfacet
  facet normal -0.382683 0.92388 0
    outer loop
      vertex 0 -2.5 18
      vertex 1.76777 -1.76777 0
      vertex 0 -2.5 0
    endloop
  endfacet
  facet normal 0.382683 0.92388 -0
    outer loop
      vertex 0 -2.5 18
      vertex 0 -2.5 0
      vertex -1.76777 -1.76777 18
    endloop
  endfacet
  facet normal 0.382683 0.92388 -0
    outer loop
      vertex -1.76777 -1.76777 18
      vertex 0 -2.5 0
      vertex -1.76777 -1.76777 0
    endloop
  endfacet
  facet normal 0 0 1
    outer loop
      vertex 9.56349 2.75 16
      vertex 9.13546 4.06737 16
      vertex 8.09017 5.87785 16
    endloop
  endfacet
  facet normal 0 0 1
    outer loop
      vertex 5 8.66025 16
      vertex 9.56349 2.75 16
      vertex 6.69131 7.43145 16
    endloop
  endfacet
  facet normal 0 0 1
    outer loop
      vertex 6.69131 7.43145 16
      vertex 9.56349 2.75 16
      vertex 8.09017 5.87785 16
    endloop
  endfacet
  facet normal 0 0 1
    outer loop
      vertex 3.09017 9.51056 16
      vertex 9.56349 2.75 16
      vertex 5 8.66025 16
    endloop
  endfacet
  facet normal 0 0 1
    outer loop
      vertex 1.04529 9.94522 16
      vertex 9.56349 2.75 16
      vertex 3.09017 9.51056 16
    endloop
  endfacet
  facet normal 0 0 1
    outer loop
      vertex -1.04529 9.94522 16
      vertex 9.56349 2.75 16
      vertex 1.04529 9.94522 16
    endloop
  endfacet
  facet normal 0 0 1
    outer loop
      vertex -3.09017 9.51056 16
      vertex 9.56349 2.75 16
      vertex -1.04529 9.94522 16
    endloop
  endfacet
  facet normal 0 0 1
    outer loop
      vertex -5 8.66025 16
      vertex 9.56349 2.75 16
      vertex -3.09017 9.51056 16
    endloop
  endfacet
  facet normal 0 0 1
    outer loop
      vertex -6.69131 7.43145 16
      vertex 9.56349 2.75 16
      vertex -5 8.66025 16
    endloop
  endfacet
  facet normal 0 0 1
    outer loop
      vertex -8.09017 5.87785 16
      vertex 9.56349 2.75 16
      vertex -6.69131 7.43145 16
    endloop
  endfacet
  facet normal 0 0 1
    outer loop
      vertex -9.13546 4.06737 16
      vertex 9.56349 2.75 16
      vertex -8.09017 5.87785 16
    endloop
  endfacet
  facet normal 0 0 1
    outer loop
      vertex -9.56349 2.75 16
      vertex 9.56349 2.75 16
      vertex -9.13546 4.06737 16
    endloop
  endfacet
  facet normal 0 1 0
    outer loop
      vertex -9.56349 2.75 16
      vertex -9.56349 2.75 18
      vertex 9.56349 2.75 16
    endloop
  endfacet
  facet normal 0 1 0
    outer loop
      vertex 9.56349 2.75 16
      vertex -9.56349 2.75 18
      vertex 9.56349 2.75 18
    endloop
  endfacet
  facet normal 0 -1 0
    outer loop
      vertex -9.56349 -2.75 18
      vertex -9.56349 -2.75 16
      vertex 9.56349 -2.75 16
    endloop
  endfacet
  facet normal 0 -1 0
    outer loop
      vertex 9.56349 -2.75 18
      vertex -9.56349 -2.75 18
      vertex 9.56349 -2.75 16
    endloop
  endfacet
  facet normal 0 0 1
    outer loop
      vertex -9.13546 -4.06737 16
      vertex -8.09017 -5.87785 16
      vertex -6.69131 -7.43145 16
    endloop
  endfacet
  facet normal 0 0 1
    outer loop
      vertex -3.09017 -9.51056 16
      vertex -9.13546 -4.06737 16
      vertex -5 -8.66025 16
    endloop
  endfacet
  facet normal 0 0 1
    outer loop
      vertex -5 -8.66025 16
      vertex -9.13546 -4.06737 16
      vertex -6.69131 -7.43145 16
    endloop
  endfacet
  facet normal 0 0 1
    outer loop
      vertex -1.04529 -9.94522 16
      vertex -9.13546 -4.06737 16
      vertex -3.09017 -9.51056 16
    endloop
  endfacet
  facet normal -0 0 1
    outer loop
      vertex 1.04529 -9.94522 16
      vertex -9.13546 -4.06737 16
      vertex -1.04529 -9.94522 16
    endloop
  endfacet
  facet normal -0 0 1
    outer loop
      vertex 3.09017 -9.51056 16
      vertex -9.13546 -4.06737 16
      vertex 1.04529 -9.94522 16
    endloop
  endfacet
  facet normal -0 0 1
    outer loop
      vertex 5 -8.66025 16
      vertex -9.13546 -4.06737 16
      vertex 3.09017 -9.51056 16
    endloop
  endfacet
  facet normal -0 0 1
    outer loop
      vertex 6.69131 -7.43145 16
      vertex -9.13546 -4.06737 16
      vertex 5 -8.66025 16
    endloop
  endfacet
  facet normal -0 0 1
    outer loop
      vertex 8.09017 -5.87785 16
      vertex -9.13546 -4.06737 16
      vertex 6.69131 -7.43145 16
    endloop
  endfacet
  facet normal 0 0 1
    outer loop
      vertex 9.13546 -4.06737 16
      vertex -9.13546 -4.06737 16
      vertex 8.09017 -5.87785 16
    endloop
  endfacet
  facet normal 0 0 1
    outer loop
      vertex 9.56349 -2.75 16
      vertex -9.13546 -4.06737 16
      vertex 9.13546 -4.06737 16
    endloop
  endfacet
  facet normal 0 0 1
    outer loop
      vertex -9.56349 -2.75 16
      vertex -9.13546 -4.06737 16
      vertex 9.56349 -2.75 16
    endloop
  endfacet
endsolid OpenSCAD_Model
