  0
SECTION
  2
BLOCKS
  0
ENDSEC
  0
SECTION
  2
ENTITIES
  0
LINE
  8
0
 10
-46
 11
-46
 20
-11.5
 21
11.5
  0
LINE
  8
0
 10
-46
 11
-45.454
 20
11.5
 21
16.698
  0
LINE
  8
0
 10
-45.454
 11
-43.839
 20
16.698
 21
21.668
  0
LINE
  8
0
 10
-43.839
 11
-41.225
 20
21.668
 21
26.195
  0
LINE
  8
0
 10
-41.225
 11
-37.728
 20
26.195
 21
30.079
  0
LINE
  8
0
 10
-37.728
 11
-33.5
 20
30.079
 21
33.151
  0
LINE
  8
0
 10
-33.5
 11
-28.725
 20
33.151
 21
35.276
  0
LINE
  8
0
 10
-28.725
 11
-23.613
 20
35.276
 21
36.363
  0
LINE
  8
0
 10
-23.613
 11
-20.5
 20
36.363
 21
36.363
  0
LINE
  8
0
 10
-20.5
 11
-20.5
 20
36.363
 21
7
  0
LINE
  8
0
 10
-20.5
 11
20.5
 20
7
 21
7
  0
LINE
  8
0
 10
20.5
 11
20.5
 20
7
 21
36.363
  0
LINE
  8
0
 10
20.5
 11
23.613
 20
36.363
 21
36.363
  0
LINE
  8
0
 10
23.613
 11
28.725
 20
36.363
 21
35.276
  0
LINE
  8
0
 10
28.725
 11
33.5
 20
35.276
 21
33.151
  0
LINE
  8
0
 10
33.5
 11
37.728
 20
33.151
 21
30.079
  0
LINE
  8
0
 10
37.728
 11
41.225
 20
30.079
 21
26.195
  0
LINE
  8
0
 10
41.225
 11
43.839
 20
26.195
 21
21.668
  0
LINE
  8
0
 10
43.839
 11
45.454
 20
21.668
 21
16.698
  0
LINE
  8
0
 10
45.454
 11
46
 20
16.698
 21
11.5
  0
LINE
  8
0
 10
46
 11
46
 20
11.5
 21
-11.5
  0
LINE
  8
0
 10
46
 11
45.454
 20
-11.5
 21
-16.698
  0
LINE
  8
0
 10
45.454
 11
43.839
 20
-16.698
 21
-21.668
  0
LINE
  8
0
 10
43.839
 11
41.225
 20
-21.668
 21
-26.195
  0
LINE
  8
0
 10
41.225
 11
37.728
 20
-26.195
 21
-30.079
  0
LINE
  8
0
 10
37.728
 11
33.5
 20
-30.079
 21
-33.151
  0
LINE
  8
0
 10
33.5
 11
28.725
 20
-33.151
 21
-35.276
  0
LINE
  8
0
 10
28.725
 11
23.613
 20
-35.276
 21
-36.363
  0
LINE
  8
0
 10
23.613
 11
20.5
 20
-36.363
 21
-36.363
  0
LINE
  8
0
 10
20.5
 11
20.5
 20
-36.363
 21
-7
  0
LINE
  8
0
 10
20.5
 11
-20.5
 20
-7
 21
-7
  0
LINE
  8
0
 10
-20.5
 11
-20.5
 20
-7
 21
-36.363
  0
LINE
  8
0
 10
-20.5
 11
-23.613
 20
-36.363
 21
-36.363
  0
LINE
  8
0
 10
-23.613
 11
-28.725
 20
-36.363
 21
-35.276
  0
LINE
  8
0
 10
-28.725
 11
-33.5
 20
-35.276
 21
-33.151
  0
LINE
  8
0
 10
-33.5
 11
-37.728
 20
-33.151
 21
-30.079
  0
LINE
  8
0
 10
-37.728
 11
-41.225
 20
-30.079
 21
-26.195
  0
LINE
  8
0
 10
-41.225
 11
-43.839
 20
-26.195
 21
-21.668
  0
LINE
  8
0
 10
-43.839
 11
-45.454
 20
-21.668
 21
-16.698
  0
LINE
  8
0
 10
-45.454
 11
-46
 20
-16.698
 21
-11.5
  0
LINE
  8
0
 10
-44
 11
-43.2
 20
0
 21
1.386
  0
LINE
  8
0
 10
-43.2
 11
-41.6
 20
1.386
 21
1.386
  0
LINE
  8
0
 10
-41.6
 11
-40.8
 20
1.386
 21
0
  0
LINE
  8
0
 10
-40.8
 11
-41.6
 20
0
 21
-1.386
  0
LINE
  8
0
 10
-41.6
 11
-43.2
 20
-1.386
 21
-1.386
  0
LINE
  8
0
 10
-43.2
 11
-44
 20
-1.386
 21
0
  0
LINE
  8
0
 10
-26
 11
-26
 20
-5
 21
5
  0
LINE
  8
0
 10
-26
 11
26
 20
5
 21
5
  0
LINE
  8
0
 10
26
 11
26
 20
5
 21
-5
  0
LINE
  8
0
 10
26
 11
-26
 20
-5
 21
-5
  0
LINE
  8
0
 10
40.8
 11
41.6
 20
0
 21
1.386
  0
LINE
  8
0
 10
41.6
 11
43.2
 20
1.386
 21
1.386
  0
LINE
  8
0
 10
43.2
 11
44
 20
1.386
 21
0
  0
LINE
  8
0
 10
44
 11
43.2
 20
0
 21
-1.386
  0
LINE
  8
0
 10
43.2
 11
41.6
 20
-1.386
 21
-1.386
  0
LINE
  8
0
 10
41.6
 11
40.8
 20
-1.386
 21
0
  0
ENDSEC
  0
SECTION
  2
OBJECTS
  0
DICTIONARY
  0
ENDSEC
  0
EOF
