solid OpenSCAD_Model
  facet normal -1 -0 -0
    outer loop
      vertex -10 -25 -2.5
      vertex -10 -25 2.5
      vertex -10 25 -2.5
    endloop
  endfacet
  facet normal -1 0 0
    outer loop
      vertex -10 25 -2.5
      vertex -10 -25 2.5
      vertex -10 25 2.5
    endloop
  endfacet
  facet normal -0.995185 -0.0980171 -0
    outer loop
      vertex -10 -25 -2.5
      vertex -9.80785 -26.9509 -2.5
      vertex -10 -25 2.5
    endloop
  endfacet
  facet normal -0.995185 -0.0980171 0
    outer loop
      vertex -10 -25 2.5
      vertex -9.80785 -26.9509 -2.5
      vertex -9.80785 -26.9509 2.5
    endloop
  endfacet
  facet normal -0 -0 -1
    outer loop
      vertex -10 -25 -2.5
      vertex -10 25 -2.5
      vertex -9.80785 -26.9509 -2.5
    endloop
  endfacet
  facet normal 0 0 -1
    outer loop
      vertex -9.80785 -26.9509 -2.5
      vertex -10 25 -2.5
      vertex -9.80785 26.9509 -2.5
    endloop
  endfacet
  facet normal 0 -0 -1
    outer loop
      vertex -9.80785 -26.9509 -2.5
      vertex -9.80785 26.9509 -2.5
      vertex -9.23879 28.8268 -2.5
    endloop
  endfacet
  facet normal 0 0 -1
    outer loop
      vertex -9.80785 -26.9509 -2.5
      vertex -9.23879 28.8268 -2.5
      vertex -8.3147 30.5557 -2.5
    endloop
  endfacet
  facet normal 0 0 -1
    outer loop
      vertex -9.80785 -26.9509 -2.5
      vertex -8.3147 30.5557 -2.5
      vertex -7.07107 32.0711 -2.5
    endloop
  endfacet
  facet normal 0 0 -1
    outer loop
      vertex -9.80785 -26.9509 -2.5
      vertex -7.07107 32.0711 -2.5
      vertex -5.5557 33.3147 -2.5
    endloop
  endfacet
  facet normal 0 0 -1
    outer loop
      vertex -9.80785 -26.9509 -2.5
      vertex -5.5557 33.3147 -2.5
      vertex -3.82683 34.2388 -2.5
    endloop
  endfacet
  facet normal 0 0 -1
    outer loop
      vertex -9.80785 -26.9509 -2.5
      vertex -3.82683 34.2388 -2.5
      vertex -1.9509 34.8079 -2.5
    endloop
  endfacet
  facet normal 0 -0 -1
    outer loop
      vertex -1.80194 25.8678 -2.5
      vertex -1.9509 34.8079 -2.5
      vertex 0 35 -2.5
    endloop
  endfacet
  facet normal 0 0 -1
    outer loop
      vertex 1.24698 26.5637 -2.5
      vertex 1.9509 34.8079 -2.5
      vertex 3.82683 34.2388 -2.5
    endloop
  endfacet
  facet normal 0 0 -1
    outer loop
      vertex 2 25 -2.5
      vertex 3.82683 34.2388 -2.5
      vertex 5.5557 33.3147 -2.5
    endloop
  endfacet
  facet normal 0 0 -1
    outer loop
      vertex -0.49651 4.72398 -2.5
      vertex 8.3147 30.5557 -2.5
      vertex 9.23879 28.8268 -2.5
    endloop
  endfacet
  facet normal 0 0 -1
    outer loop
      vertex -0.49651 4.72398 -2.5
      vertex 7.07107 32.0711 -2.5
      vertex 8.3147 30.5557 -2.5
    endloop
  endfacet
  facet normal 0 0 -1
    outer loop
      vertex -2.375 4.11362 -2.5
      vertex 7.07107 32.0711 -2.5
      vertex -0.49651 4.72398 -2.5
    endloop
  endfacet
  facet normal 0 0 -1
    outer loop
      vertex 1.46783 4.51752 -2.5
      vertex 9.23879 28.8268 -2.5
      vertex 9.80785 26.9509 -2.5
    endloop
  endfacet
  facet normal -0 0 -1
    outer loop
      vertex 4.75 0 -2.5
      vertex 10 25 -2.5
      vertex 10 -25 -2.5
    endloop
  endfacet
  facet normal -0 0 -1
    outer loop
      vertex -0.445042 -26.9499 -2.5
      vertex 10 -25 -2.5
      vertex 9.80785 -26.9509 -2.5
    endloop
  endfacet
  facet normal 0 0 -1
    outer loop
      vertex -9.80785 -26.9509 -2.5
      vertex 9.80785 -26.9509 -2.5
      vertex 9.23879 -28.8268 -2.5
    endloop
  endfacet
  facet normal 0 0 -1
    outer loop
      vertex -9.80785 -26.9509 -2.5
      vertex 9.23879 -28.8268 -2.5
      vertex 8.3147 -30.5557 -2.5
    endloop
  endfacet
  facet normal 0 0 -1
    outer loop
      vertex -9.80785 -26.9509 -2.5
      vertex 8.3147 -30.5557 -2.5
      vertex 7.07107 -32.0711 -2.5
    endloop
  endfacet
  facet normal 0 0 -1
    outer loop
      vertex -9.80785 -26.9509 -2.5
      vertex 7.07107 -32.0711 -2.5
      vertex 5.5557 -33.3147 -2.5
    endloop
  endfacet
  facet normal 0 0 -1
    outer loop
      vertex -9.80785 -26.9509 -2.5
      vertex 5.5557 -33.3147 -2.5
      vertex 3.82683 -34.2388 -2.5
    endloop
  endfacet
  facet normal 0 0 -1
    outer loop
      vertex -9.80785 -26.9509 -2.5
      vertex 3.82683 -34.2388 -2.5
      vertex 1.9509 -34.8079 -2.5
    endloop
  endfacet
  facet normal 0 0 -1
    outer loop
      vertex -9.80785 -26.9509 -2.5
      vertex 1.9509 -34.8079 -2.5
      vertex 0 -35 -2.5
    endloop
  endfacet
  facet normal 0 0 -1
    outer loop
      vertex -9.80785 -26.9509 -2.5
      vertex 0 -35 -2.5
      vertex -1.9509 -34.8079 -2.5
    endloop
  endfacet
  facet normal 0 0 -1
    outer loop
      vertex -9.80785 -26.9509 -2.5
      vertex -1.9509 -34.8079 -2.5
      vertex -3.82683 -34.2388 -2.5
    endloop
  endfacet
  facet normal 0 0 -1
    outer loop
      vertex -9.80785 -26.9509 -2.5
      vertex -3.82683 -34.2388 -2.5
      vertex -5.5557 -33.3147 -2.5
    endloop
  endfacet
  facet normal 0 0 -1
    outer loop
      vertex -9.80785 -26.9509 -2.5
      vertex -5.5557 -33.3147 -2.5
      vertex -7.07107 -32.0711 -2.5
    endloop
  endfacet
  facet normal 0 0 -1
    outer loop
      vertex -9.80785 -26.9509 -2.5
      vertex -7.07107 -32.0711 -2.5
      vertex -8.3147 -30.5557 -2.5
    endloop
  endfacet
  facet normal 0 0 -1
    outer loop
      vertex -9.80785 -26.9509 -2.5
      vertex -8.3147 -30.5557 -2.5
      vertex -9.23879 -28.8268 -2.5
    endloop
  endfacet
  facet normal 0 0 -1
    outer loop
      vertex -3.84283 -2.79198 -2.5
      vertex -9.80785 -26.9509 -2.5
      vertex -4.6462 -0.987581 -2.5
    endloop
  endfacet
  facet normal 0 0 -1
    outer loop
      vertex -2.375 -4.11362 -2.5
      vertex -9.80785 -26.9509 -2.5
      vertex -3.84283 -2.79198 -2.5
    endloop
  endfacet
  facet normal 0 0 -1
    outer loop
      vertex -0.49651 -4.72398 -2.5
      vertex -9.80785 -26.9509 -2.5
      vertex -2.375 -4.11362 -2.5
    endloop
  endfacet
  facet normal -0 0 -1
    outer loop
      vertex 4.33934 1.932 -2.5
      vertex 10 25 -2.5
      vertex 4.75 0 -2.5
    endloop
  endfacet
  facet normal -0 -0 -1
    outer loop
      vertex 1.24698 -23.4363 -2.5
      vertex -0.49651 -4.72398 -2.5
      vertex 10 -25 -2.5
    endloop
  endfacet
  facet normal -0 0 -1
    outer loop
      vertex 1.46783 4.51752 -2.5
      vertex 10 25 -2.5
      vertex 3.17837 3.52994 -2.5
    endloop
  endfacet
  facet normal -0 0 -1
    outer loop
      vertex -0.49651 -4.72398 -2.5
      vertex 1.46783 -4.51752 -2.5
      vertex 10 -25 -2.5
    endloop
  endfacet
  facet normal -0 0 -1
    outer loop
      vertex 3.17837 3.52994 -2.5
      vertex 10 25 -2.5
      vertex 4.33934 1.932 -2.5
    endloop
  endfacet
  facet normal -0 0 -1
    outer loop
      vertex 1.46783 -4.51752 -2.5
      vertex 3.17837 -3.52994 -2.5
      vertex 10 -25 -2.5
    endloop
  endfacet
  facet normal -0 0 -1
    outer loop
      vertex 3.17837 -3.52994 -2.5
      vertex 4.33934 -1.932 -2.5
      vertex 10 -25 -2.5
    endloop
  endfacet
  facet normal -0 0 -1
    outer loop
      vertex 4.33934 -1.932 -2.5
      vertex 4.75 0 -2.5
      vertex 10 -25 -2.5
    endloop
  endfacet
  facet normal -0 0 -1
    outer loop
      vertex -0.49651 4.72398 -2.5
      vertex 9.23879 28.8268 -2.5
      vertex 1.46783 4.51752 -2.5
    endloop
  endfacet
  facet normal 0 0 -1
    outer loop
      vertex 1.46783 4.51752 -2.5
      vertex 9.80785 26.9509 -2.5
      vertex 10 25 -2.5
    endloop
  endfacet
  facet normal 0 0 -1
    outer loop
      vertex 2 25 -2.5
      vertex -2.375 4.11362 -2.5
      vertex 1.24698 23.4363 -2.5
    endloop
  endfacet
  facet normal 0 0 -1
    outer loop
      vertex -0.445042 -26.9499 -2.5
      vertex -9.80785 -26.9509 -2.5
      vertex -1.80194 -25.8678 -2.5
    endloop
  endfacet
  facet normal 0 0 -1
    outer loop
      vertex -9.80785 -26.9509 -2.5
      vertex -0.49651 -4.72398 -2.5
      vertex -1.80194 -24.1322 -2.5
    endloop
  endfacet
  facet normal 0 0 -1
    outer loop
      vertex 1.24698 23.4363 -2.5
      vertex -4.6462 0.987581 -2.5
      vertex -0.445042 23.0501 -2.5
    endloop
  endfacet
  facet normal 0 0 -1
    outer loop
      vertex -9.80785 -26.9509 -2.5
      vertex -1.80194 -24.1322 -2.5
      vertex -1.80194 -25.8678 -2.5
    endloop
  endfacet
  facet normal -0 0 -1
    outer loop
      vertex 1.24698 -26.5637 -2.5
      vertex 10 -25 -2.5
      vertex -0.445042 -26.9499 -2.5
    endloop
  endfacet
  facet normal -0 0 -1
    outer loop
      vertex -9.80785 -26.9509 -2.5
      vertex -0.445042 -26.9499 -2.5
      vertex 9.80785 -26.9509 -2.5
    endloop
  endfacet
  facet normal 0 0 -1
    outer loop
      vertex 2 -25 -2.5
      vertex 10 -25 -2.5
      vertex 1.24698 -26.5637 -2.5
    endloop
  endfacet
  facet normal 0 0 -1
    outer loop
      vertex 1.24698 -23.4363 -2.5
      vertex 10 -25 -2.5
      vertex 2 -25 -2.5
    endloop
  endfacet
  facet normal -0 -0 -1
    outer loop
      vertex -0.445042 -23.0501 -2.5
      vertex -0.49651 -4.72398 -2.5
      vertex 1.24698 -23.4363 -2.5
    endloop
  endfacet
  facet normal 0 0 -1
    outer loop
      vertex -1.80194 25.8678 -2.5
      vertex 0 35 -2.5
      vertex -0.445042 26.9499 -2.5
    endloop
  endfacet
  facet normal 0 0 -1
    outer loop
      vertex -1.80194 -24.1322 -2.5
      vertex -0.49651 -4.72398 -2.5
      vertex -0.445042 -23.0501 -2.5
    endloop
  endfacet
  facet normal 0 0 -1
    outer loop
      vertex -9.80785 -26.9509 -2.5
      vertex -1.9509 34.8079 -2.5
      vertex -1.80194 25.8678 -2.5
    endloop
  endfacet
  facet normal 0 -0 -1
    outer loop
      vertex -4.6462 0.987581 -2.5
      vertex -9.80785 -26.9509 -2.5
      vertex -1.80194 24.1322 -2.5
    endloop
  endfacet
  facet normal 0 0 -1
    outer loop
      vertex -9.80785 -26.9509 -2.5
      vertex -1.80194 25.8678 -2.5
      vertex -1.80194 24.1322 -2.5
    endloop
  endfacet
  facet normal 0 0 -1
    outer loop
      vertex -0.445042 23.0501 -2.5
      vertex -4.6462 0.987581 -2.5
      vertex -1.80194 24.1322 -2.5
    endloop
  endfacet
  facet normal 0 0 -1
    outer loop
      vertex -3.84283 2.79198 -2.5
      vertex 1.24698 23.4363 -2.5
      vertex -2.375 4.11362 -2.5
    endloop
  endfacet
  facet normal -0 0 -1
    outer loop
      vertex 1.24698 26.5637 -2.5
      vertex 3.82683 34.2388 -2.5
      vertex 2 25 -2.5
    endloop
  endfacet
  facet normal 0 0 -1
    outer loop
      vertex -2.375 4.11362 -2.5
      vertex 2 25 -2.5
      vertex 5.5557 33.3147 -2.5
    endloop
  endfacet
  facet normal -0 0 -1
    outer loop
      vertex -0.445042 26.9499 -2.5
      vertex 1.9509 34.8079 -2.5
      vertex 1.24698 26.5637 -2.5
    endloop
  endfacet
  facet normal 0 0 -1
    outer loop
      vertex -0.445042 26.9499 -2.5
      vertex 0 35 -2.5
      vertex 1.9509 34.8079 -2.5
    endloop
  endfacet
  facet normal 0 0 -1
    outer loop
      vertex 1.24698 23.4363 -2.5
      vertex -3.84283 2.79198 -2.5
      vertex -4.6462 0.987581 -2.5
    endloop
  endfacet
  facet normal 0 0 -1
    outer loop
      vertex -4.6462 -0.987581 -2.5
      vertex -9.80785 -26.9509 -2.5
      vertex -4.6462 0.987581 -2.5
    endloop
  endfacet
  facet normal 0 0 -1
    outer loop
      vertex -2.375 4.11362 -2.5
      vertex 5.5557 33.3147 -2.5
      vertex 7.07107 32.0711 -2.5
    endloop
  endfacet
  facet normal -0.995185 0.0980171 0
    outer loop
      vertex -10 25 -2.5
      vertex -10 25 2.5
      vertex -9.80785 26.9509 -2.5
    endloop
  endfacet
  facet normal -0.995185 0.0980171 0
    outer loop
      vertex -9.80785 26.9509 -2.5
      vertex -10 25 2.5
      vertex -9.80785 26.9509 2.5
    endloop
  endfacet
  facet normal 0 -0 1
    outer loop
      vertex -10 25 2.5
      vertex -10 -25 2.5
      vertex -9.80785 -26.9509 2.5
    endloop
  endfacet
  facet normal 0 0 1
    outer loop
      vertex -8.3147 -30.5557 2.5
      vertex -10 25 2.5
      vertex -9.23879 -28.8268 2.5
    endloop
  endfacet
  facet normal 0 0 1
    outer loop
      vertex -9.23879 -28.8268 2.5
      vertex -10 25 2.5
      vertex -9.80785 -26.9509 2.5
    endloop
  endfacet
  facet normal 0 0 1
    outer loop
      vertex -7.07107 -32.0711 2.5
      vertex -10 25 2.5
      vertex -8.3147 -30.5557 2.5
    endloop
  endfacet
  facet normal 0 0 1
    outer loop
      vertex -5.5557 -33.3147 2.5
      vertex -10 25 2.5
      vertex -7.07107 -32.0711 2.5
    endloop
  endfacet
  facet normal -0 0 1
    outer loop
      vertex -5 -25 2.5
      vertex -10 25 2.5
      vertex -5.5557 -33.3147 2.5
    endloop
  endfacet
  facet normal 0 0 1
    outer loop
      vertex -5 -25 2.5
      vertex -4.6194 -23.0866 2.5
      vertex -10 25 2.5
    endloop
  endfacet
  facet normal 0 0 1
    outer loop
      vertex -0.49651 -4.72398 2.5
      vertex 3.53553 -21.4645 2.5
      vertex 4.6194 -23.0866 2.5
    endloop
  endfacet
  facet normal 0 0 1
    outer loop
      vertex -0.49651 -4.72398 2.5
      vertex 1.91342 -20.3806 2.5
      vertex 3.53553 -21.4645 2.5
    endloop
  endfacet
  facet normal 0 -0 1
    outer loop
      vertex 5 -25 2.5
      vertex 4.6194 -26.9134 2.5
      vertex 7.07107 -32.0711 2.5
    endloop
  endfacet
  facet normal 0 0 1
    outer loop
      vertex -0.49651 4.72398 2.5
      vertex -3.53553 21.4645 2.5
      vertex -4.6194 23.0866 2.5
    endloop
  endfacet
  facet normal 0 -0 1
    outer loop
      vertex -5 25 2.5
      vertex -10 25 2.5
      vertex -4.6194 23.0866 2.5
    endloop
  endfacet
  facet normal 0 0 1
    outer loop
      vertex 1.91342 29.6194 2.5
      vertex 3.53553 28.5355 2.5
      vertex 8.3147 30.5557 2.5
    endloop
  endfacet
  facet normal 0 0 1
    outer loop
      vertex 0 30 2.5
      vertex 1.91342 29.6194 2.5
      vertex 7.07107 32.0711 2.5
    endloop
  endfacet
  facet normal 0 -0 1
    outer loop
      vertex 1.9509 34.8079 2.5
      vertex -10 25 2.5
      vertex 3.82683 34.2388 2.5
    endloop
  endfacet
  facet normal 0 -0 1
    outer loop
      vertex 0 35 2.5
      vertex -10 25 2.5
      vertex 1.9509 34.8079 2.5
    endloop
  endfacet
  facet normal 0 -0 1
    outer loop
      vertex -1.9509 34.8079 2.5
      vertex -10 25 2.5
      vertex 0 35 2.5
    endloop
  endfacet
  facet normal 0 -0 1
    outer loop
      vertex -3.82683 34.2388 2.5
      vertex -10 25 2.5
      vertex -1.9509 34.8079 2.5
    endloop
  endfacet
  facet normal 0 -0 1
    outer loop
      vertex -5.5557 33.3147 2.5
      vertex -10 25 2.5
      vertex -3.82683 34.2388 2.5
    endloop
  endfacet
  facet normal 0 -0 1
    outer loop
      vertex -7.07107 32.0711 2.5
      vertex -10 25 2.5
      vertex -5.5557 33.3147 2.5
    endloop
  endfacet
  facet normal 0 -0 1
    outer loop
      vertex -8.3147 30.5557 2.5
      vertex -10 25 2.5
      vertex -7.07107 32.0711 2.5
    endloop
  endfacet
  facet normal 0 -0 1
    outer loop
      vertex -9.23879 28.8268 2.5
      vertex -10 25 2.5
      vertex -8.3147 30.5557 2.5
    endloop
  endfacet
  facet normal 0 -0 1
    outer loop
      vertex -9.80785 26.9509 2.5
      vertex -10 25 2.5
      vertex -9.23879 28.8268 2.5
    endloop
  endfacet
  facet normal 0 0 1
    outer loop
      vertex -3.82683 -34.2388 2.5
      vertex -4.6194 -26.9134 2.5
      vertex -5.5557 -33.3147 2.5
    endloop
  endfacet
  facet normal -0 0 1
    outer loop
      vertex -4.6194 -26.9134 2.5
      vertex -5 -25 2.5
      vertex -5.5557 -33.3147 2.5
    endloop
  endfacet
  facet normal 0 0 1
    outer loop
      vertex -4.6194 -23.0866 2.5
      vertex -3.53553 -21.4645 2.5
      vertex -10 25 2.5
    endloop
  endfacet
  facet normal 0 0 1
    outer loop
      vertex -1.91342 -20.3806 2.5
      vertex 0 -20 2.5
      vertex -4.6462 -0.987581 2.5
    endloop
  endfacet
  facet normal 0 0 1
    outer loop
      vertex -3.53553 -21.4645 2.5
      vertex -1.91342 -20.3806 2.5
      vertex -10 25 2.5
    endloop
  endfacet
  facet normal 0 0 1
    outer loop
      vertex -1.91342 -20.3806 2.5
      vertex -4.6462 -0.987581 2.5
      vertex -10 25 2.5
    endloop
  endfacet
  facet normal -0 0 1
    outer loop
      vertex -1.91342 -29.6194 2.5
      vertex -3.53553 -28.5355 2.5
      vertex -1.9509 -34.8079 2.5
    endloop
  endfacet
  facet normal -0 0 1
    outer loop
      vertex 0 -30 2.5
      vertex -1.91342 -29.6194 2.5
      vertex 0 -35 2.5
    endloop
  endfacet
  facet normal 0 -0 1
    outer loop
      vertex 1.91342 -29.6194 2.5
      vertex 0 -30 2.5
      vertex 1.9509 -34.8079 2.5
    endloop
  endfacet
  facet normal 0 -0 1
    outer loop
      vertex 3.53553 -28.5355 2.5
      vertex 1.91342 -29.6194 2.5
      vertex 3.82683 -34.2388 2.5
    endloop
  endfacet
  facet normal 0 -0 1
    outer loop
      vertex 4.6194 -26.9134 2.5
      vertex 3.53553 -28.5355 2.5
      vertex 5.5557 -33.3147 2.5
    endloop
  endfacet
  facet normal -0 0 1
    outer loop
      vertex 8.3147 -30.5557 2.5
      vertex 4.6194 -23.0866 2.5
      vertex 7.07107 -32.0711 2.5
    endloop
  endfacet
  facet normal 0 0 1
    outer loop
      vertex -2.375 4.11362 2.5
      vertex -0.49651 4.72398 2.5
      vertex -10 25 2.5
    endloop
  endfacet
  facet normal 0 0 1
    outer loop
      vertex 4.6194 -23.0866 2.5
      vertex 5 -25 2.5
      vertex 7.07107 -32.0711 2.5
    endloop
  endfacet
  facet normal -0 0 1
    outer loop
      vertex 7.07107 -32.0711 2.5
      vertex 4.6194 -26.9134 2.5
      vertex 5.5557 -33.3147 2.5
    endloop
  endfacet
  facet normal -0 0 1
    outer loop
      vertex 5.5557 -33.3147 2.5
      vertex 3.53553 -28.5355 2.5
      vertex 3.82683 -34.2388 2.5
    endloop
  endfacet
  facet normal -0 0 1
    outer loop
      vertex 3.82683 -34.2388 2.5
      vertex 1.91342 -29.6194 2.5
      vertex 1.9509 -34.8079 2.5
    endloop
  endfacet
  facet normal -0 0 1
    outer loop
      vertex 1.9509 -34.8079 2.5
      vertex 0 -30 2.5
      vertex 0 -35 2.5
    endloop
  endfacet
  facet normal 0 0 1
    outer loop
      vertex 0 -35 2.5
      vertex -1.91342 -29.6194 2.5
      vertex -1.9509 -34.8079 2.5
    endloop
  endfacet
  facet normal 0 0 1
    outer loop
      vertex -1.9509 -34.8079 2.5
      vertex -3.53553 -28.5355 2.5
      vertex -3.82683 -34.2388 2.5
    endloop
  endfacet
  facet normal 0 0 1
    outer loop
      vertex -3.84283 2.79198 2.5
      vertex -2.375 4.11362 2.5
      vertex -10 25 2.5
    endloop
  endfacet
  facet normal 0 0 1
    outer loop
      vertex 3.53553 28.5355 2.5
      vertex 4.6194 26.9134 2.5
      vertex 9.23879 28.8268 2.5
    endloop
  endfacet
  facet normal 0 0 1
    outer loop
      vertex 3.82683 34.2388 2.5
      vertex -10 25 2.5
      vertex -3.53553 28.5355 2.5
    endloop
  endfacet
  facet normal 0 -0 1
    outer loop
      vertex 3.82683 34.2388 2.5
      vertex -1.91342 29.6194 2.5
      vertex 5.5557 33.3147 2.5
    endloop
  endfacet
  facet normal 0 0 1
    outer loop
      vertex 3.82683 34.2388 2.5
      vertex -3.53553 28.5355 2.5
      vertex -1.91342 29.6194 2.5
    endloop
  endfacet
  facet normal 0 -0 1
    outer loop
      vertex 5.5557 33.3147 2.5
      vertex 0 30 2.5
      vertex 7.07107 32.0711 2.5
    endloop
  endfacet
  facet normal 0 0 1
    outer loop
      vertex -1.91342 29.6194 2.5
      vertex 0 30 2.5
      vertex 5.5557 33.3147 2.5
    endloop
  endfacet
  facet normal 0 -0 1
    outer loop
      vertex 7.07107 32.0711 2.5
      vertex 1.91342 29.6194 2.5
      vertex 8.3147 30.5557 2.5
    endloop
  endfacet
  facet normal 0 -0 1
    outer loop
      vertex 8.3147 30.5557 2.5
      vertex 3.53553 28.5355 2.5
      vertex 9.23879 28.8268 2.5
    endloop
  endfacet
  facet normal 0 0 1
    outer loop
      vertex -4.6462 -0.987581 2.5
      vertex -4.6462 0.987581 2.5
      vertex -10 25 2.5
    endloop
  endfacet
  facet normal 0 -0 1
    outer loop
      vertex 9.23879 28.8268 2.5
      vertex 4.6194 26.9134 2.5
      vertex 9.80785 26.9509 2.5
    endloop
  endfacet
  facet normal -0 0 1
    outer loop
      vertex -4.6194 26.9134 2.5
      vertex -3.53553 28.5355 2.5
      vertex -10 25 2.5
    endloop
  endfacet
  facet normal 0 -0 1
    outer loop
      vertex 9.80785 26.9509 2.5
      vertex 5 25 2.5
      vertex 10 25 2.5
    endloop
  endfacet
  facet normal 0 0 1
    outer loop
      vertex 10 25 2.5
      vertex 4.6194 23.0866 2.5
      vertex 10 -25 2.5
    endloop
  endfacet
  facet normal 0 -0 1
    outer loop
      vertex 4.6194 23.0866 2.5
      vertex 3.53553 21.4645 2.5
      vertex 10 -25 2.5
    endloop
  endfacet
  facet normal 0 -0 1
    outer loop
      vertex 3.53553 21.4645 2.5
      vertex 1.91342 20.3806 2.5
      vertex 10 -25 2.5
    endloop
  endfacet
  facet normal 0 0 1
    outer loop
      vertex 3.17837 3.52994 2.5
      vertex 4.33934 1.932 2.5
      vertex 0 20 2.5
    endloop
  endfacet
  facet normal 0 -0 1
    outer loop
      vertex 3.17837 -3.52994 2.5
      vertex 1.46783 -4.51752 2.5
      vertex 10 -25 2.5
    endloop
  endfacet
  facet normal 0 0 1
    outer loop
      vertex -4.6462 0.987581 2.5
      vertex -3.84283 2.79198 2.5
      vertex -10 25 2.5
    endloop
  endfacet
  facet normal 0 -0 1
    outer loop
      vertex 5 25 2.5
      vertex 4.6194 23.0866 2.5
      vertex 10 25 2.5
    endloop
  endfacet
  facet normal -0 -0 1
    outer loop
      vertex -2.375 -4.11362 2.5
      vertex -3.84283 -2.79198 2.5
      vertex 0 -20 2.5
    endloop
  endfacet
  facet normal -0 -0 1
    outer loop
      vertex -0.49651 -4.72398 2.5
      vertex -2.375 -4.11362 2.5
      vertex 1.91342 -20.3806 2.5
    endloop
  endfacet
  facet normal 0 0 1
    outer loop
      vertex -0.49651 4.72398 2.5
      vertex 1.46783 4.51752 2.5
      vertex -3.53553 21.4645 2.5
    endloop
  endfacet
  facet normal 0 0 1
    outer loop
      vertex 1.46783 -4.51752 2.5
      vertex 9.23879 -28.8268 2.5
      vertex 9.80785 -26.9509 2.5
    endloop
  endfacet
  facet normal -0 -0 1
    outer loop
      vertex -4.6194 23.0866 2.5
      vertex -10 25 2.5
      vertex -0.49651 4.72398 2.5
    endloop
  endfacet
  facet normal 0 -0 1
    outer loop
      vertex 4.75 0 2.5
      vertex 4.33934 -1.932 2.5
      vertex 10 -25 2.5
    endloop
  endfacet
  facet normal -0 -0 1
    outer loop
      vertex -1.91342 20.3806 2.5
      vertex -3.53553 21.4645 2.5
      vertex 1.46783 4.51752 2.5
    endloop
  endfacet
  facet normal -0 -0 1
    outer loop
      vertex 0 20 2.5
      vertex -1.91342 20.3806 2.5
      vertex 3.17837 3.52994 2.5
    endloop
  endfacet
  facet normal 0 0 1
    outer loop
      vertex 1.46783 -4.51752 2.5
      vertex 8.3147 -30.5557 2.5
      vertex 9.23879 -28.8268 2.5
    endloop
  endfacet
  facet normal 0 -0 1
    outer loop
      vertex 1.91342 20.3806 2.5
      vertex 0 20 2.5
      vertex 4.33934 1.932 2.5
    endloop
  endfacet
  facet normal 0 0 1
    outer loop
      vertex 1.91342 20.3806 2.5
      vertex 4.75 0 2.5
      vertex 10 -25 2.5
    endloop
  endfacet
  facet normal 0 0 1
    outer loop
      vertex 1.91342 20.3806 2.5
      vertex 4.33934 1.932 2.5
      vertex 4.75 0 2.5
    endloop
  endfacet
  facet normal 0 -0 1
    outer loop
      vertex 4.33934 -1.932 2.5
      vertex 3.17837 -3.52994 2.5
      vertex 10 -25 2.5
    endloop
  endfacet
  facet normal 0 0 1
    outer loop
      vertex 1.46783 4.51752 2.5
      vertex 3.17837 3.52994 2.5
      vertex -1.91342 20.3806 2.5
    endloop
  endfacet
  facet normal 0 -0 1
    outer loop
      vertex 1.46783 -4.51752 2.5
      vertex -0.49651 -4.72398 2.5
      vertex 8.3147 -30.5557 2.5
    endloop
  endfacet
  facet normal -0 0 1
    outer loop
      vertex 10 -25 2.5
      vertex 1.46783 -4.51752 2.5
      vertex 9.80785 -26.9509 2.5
    endloop
  endfacet
  facet normal 0 0 1
    outer loop
      vertex 8.3147 -30.5557 2.5
      vertex -0.49651 -4.72398 2.5
      vertex 4.6194 -23.0866 2.5
    endloop
  endfacet
  facet normal 0 0 1
    outer loop
      vertex 0 -20 2.5
      vertex -3.84283 -2.79198 2.5
      vertex -4.6462 -0.987581 2.5
    endloop
  endfacet
  facet normal 0 0 1
    outer loop
      vertex 4.6194 26.9134 2.5
      vertex 5 25 2.5
      vertex 9.80785 26.9509 2.5
    endloop
  endfacet
  facet normal -0 0 1
    outer loop
      vertex -3.53553 -28.5355 2.5
      vertex -4.6194 -26.9134 2.5
      vertex -3.82683 -34.2388 2.5
    endloop
  endfacet
  facet normal 0 0 1
    outer loop
      vertex 0 -20 2.5
      vertex 1.91342 -20.3806 2.5
      vertex -2.375 -4.11362 2.5
    endloop
  endfacet
  facet normal -0 0 1
    outer loop
      vertex -5 25 2.5
      vertex -4.6194 26.9134 2.5
      vertex -10 25 2.5
    endloop
  endfacet
  facet normal -0.95694 -0.290285 -0
    outer loop
      vertex -9.80785 -26.9509 -2.5
      vertex -9.23879 -28.8268 -2.5
      vertex -9.80785 -26.9509 2.5
    endloop
  endfacet
  facet normal -0.95694 -0.290285 0
    outer loop
      vertex -9.80785 -26.9509 2.5
      vertex -9.23879 -28.8268 -2.5
      vertex -9.23879 -28.8268 2.5
    endloop
  endfacet
  facet normal -0.881921 -0.471397 -0
    outer loop
      vertex -9.23879 -28.8268 -2.5
      vertex -8.3147 -30.5557 -2.5
      vertex -9.23879 -28.8268 2.5
    endloop
  endfacet
  facet normal -0.881921 -0.471397 0
    outer loop
      vertex -9.23879 -28.8268 2.5
      vertex -8.3147 -30.5557 -2.5
      vertex -8.3147 -30.5557 2.5
    endloop
  endfacet
  facet normal -0.773011 -0.634393 -0
    outer loop
      vertex -8.3147 -30.5557 -2.5
      vertex -7.07107 -32.0711 -2.5
      vertex -8.3147 -30.5557 2.5
    endloop
  endfacet
  facet normal -0.773011 -0.634393 0
    outer loop
      vertex -8.3147 -30.5557 2.5
      vertex -7.07107 -32.0711 -2.5
      vertex -7.07107 -32.0711 2.5
    endloop
  endfacet
  facet normal -0.634393 -0.773011 0
    outer loop
      vertex -7.07107 -32.0711 2.5
      vertex -7.07107 -32.0711 -2.5
      vertex -5.5557 -33.3147 -2.5
    endloop
  endfacet
  facet normal -0.634393 -0.773011 0
    outer loop
      vertex -5.5557 -33.3147 2.5
      vertex -7.07107 -32.0711 2.5
      vertex -5.5557 -33.3147 -2.5
    endloop
  endfacet
  facet normal -0.471397 -0.881921 0
    outer loop
      vertex -5.5557 -33.3147 2.5
      vertex -5.5557 -33.3147 -2.5
      vertex -3.82683 -34.2388 -2.5
    endloop
  endfacet
  facet normal -0.471397 -0.881921 0
    outer loop
      vertex -3.82683 -34.2388 2.5
      vertex -5.5557 -33.3147 2.5
      vertex -3.82683 -34.2388 -2.5
    endloop
  endfacet
  facet normal -0.290285 -0.95694 0
    outer loop
      vertex -3.82683 -34.2388 2.5
      vertex -3.82683 -34.2388 -2.5
      vertex -1.9509 -34.8079 -2.5
    endloop
  endfacet
  facet normal -0.290285 -0.95694 0
    outer loop
      vertex -1.9509 -34.8079 2.5
      vertex -3.82683 -34.2388 2.5
      vertex -1.9509 -34.8079 -2.5
    endloop
  endfacet
  facet normal -0.0980171 -0.995185 0
    outer loop
      vertex -1.9509 -34.8079 2.5
      vertex -1.9509 -34.8079 -2.5
      vertex 0 -35 -2.5
    endloop
  endfacet
  facet normal -0.0980171 -0.995185 0
    outer loop
      vertex 0 -35 2.5
      vertex -1.9509 -34.8079 2.5
      vertex 0 -35 -2.5
    endloop
  endfacet
  facet normal 0.0980171 -0.995185 0
    outer loop
      vertex 0 -35 2.5
      vertex 0 -35 -2.5
      vertex 1.9509 -34.8079 -2.5
    endloop
  endfacet
  facet normal 0.0980171 -0.995185 0
    outer loop
      vertex 1.9509 -34.8079 2.5
      vertex 0 -35 2.5
      vertex 1.9509 -34.8079 -2.5
    endloop
  endfacet
  facet normal 0.290285 -0.95694 0
    outer loop
      vertex 1.9509 -34.8079 2.5
      vertex 1.9509 -34.8079 -2.5
      vertex 3.82683 -34.2388 -2.5
    endloop
  endfacet
  facet normal 0.290285 -0.95694 0
    outer loop
      vertex 3.82683 -34.2388 2.5
      vertex 1.9509 -34.8079 2.5
      vertex 3.82683 -34.2388 -2.5
    endloop
  endfacet
  facet normal 0.471397 -0.881921 0
    outer loop
      vertex 3.82683 -34.2388 2.5
      vertex 3.82683 -34.2388 -2.5
      vertex 5.5557 -33.3147 -2.5
    endloop
  endfacet
  facet normal 0.471397 -0.881921 0
    outer loop
      vertex 5.5557 -33.3147 2.5
      vertex 3.82683 -34.2388 2.5
      vertex 5.5557 -33.3147 -2.5
    endloop
  endfacet
  facet normal 0.634393 -0.773011 0
    outer loop
      vertex 5.5557 -33.3147 2.5
      vertex 5.5557 -33.3147 -2.5
      vertex 7.07107 -32.0711 -2.5
    endloop
  endfacet
  facet normal 0.634393 -0.773011 0
    outer loop
      vertex 7.07107 -32.0711 2.5
      vertex 5.5557 -33.3147 2.5
      vertex 7.07107 -32.0711 -2.5
    endloop
  endfacet
  facet normal 0.773011 -0.634393 0
    outer loop
      vertex 7.07107 -32.0711 2.5
      vertex 7.07107 -32.0711 -2.5
      vertex 8.3147 -30.5557 -2.5
    endloop
  endfacet
  facet normal 0.773011 -0.634393 0
    outer loop
      vertex 8.3147 -30.5557 2.5
      vertex 7.07107 -32.0711 2.5
      vertex 8.3147 -30.5557 -2.5
    endloop
  endfacet
  facet normal 0.881921 -0.471397 0
    outer loop
      vertex 8.3147 -30.5557 2.5
      vertex 8.3147 -30.5557 -2.5
      vertex 9.23879 -28.8268 -2.5
    endloop
  endfacet
  facet normal 0.881921 -0.471397 0
    outer loop
      vertex 9.23879 -28.8268 2.5
      vertex 8.3147 -30.5557 2.5
      vertex 9.23879 -28.8268 -2.5
    endloop
  endfacet
  facet normal 0.95694 -0.290285 0
    outer loop
      vertex 9.23879 -28.8268 2.5
      vertex 9.23879 -28.8268 -2.5
      vertex 9.80785 -26.9509 -2.5
    endloop
  endfacet
  facet normal 0.95694 -0.290285 0
    outer loop
      vertex 9.80785 -26.9509 2.5
      vertex 9.23879 -28.8268 2.5
      vertex 9.80785 -26.9509 -2.5
    endloop
  endfacet
  facet normal 0.995185 -0.0980171 0
    outer loop
      vertex 9.80785 -26.9509 2.5
      vertex 9.80785 -26.9509 -2.5
      vertex 10 -25 -2.5
    endloop
  endfacet
  facet normal 0.995185 -0.0980171 0
    outer loop
      vertex 10 -25 2.5
      vertex 9.80785 -26.9509 2.5
      vertex 10 -25 -2.5
    endloop
  endfacet
  facet normal 1 0 -0
    outer loop
      vertex 10 -25 2.5
      vertex 10 -25 -2.5
      vertex 10 25 -2.5
    endloop
  endfacet
  facet normal 1 0 0
    outer loop
      vertex 10 25 2.5
      vertex 10 -25 2.5
      vertex 10 25 -2.5
    endloop
  endfacet
  facet normal 0.995185 0.0980171 0
    outer loop
      vertex 10 25 -2.5
      vertex 9.80785 26.9509 -2.5
      vertex 9.80785 26.9509 2.5
    endloop
  endfacet
  facet normal 0.995185 0.0980171 -0
    outer loop
      vertex 10 25 2.5
      vertex 10 25 -2.5
      vertex 9.80785 26.9509 2.5
    endloop
  endfacet
  facet normal 0.95694 0.290285 0
    outer loop
      vertex 9.80785 26.9509 -2.5
      vertex 9.23879 28.8268 -2.5
      vertex 9.23879 28.8268 2.5
    endloop
  endfacet
  facet normal 0.95694 0.290285 -0
    outer loop
      vertex 9.80785 26.9509 2.5
      vertex 9.80785 26.9509 -2.5
      vertex 9.23879 28.8268 2.5
    endloop
  endfacet
  facet normal 0.881921 0.471397 0
    outer loop
      vertex 9.23879 28.8268 -2.5
      vertex 8.3147 30.5557 -2.5
      vertex 8.3147 30.5557 2.5
    endloop
  endfacet
  facet normal 0.881921 0.471397 -0
    outer loop
      vertex 9.23879 28.8268 2.5
      vertex 9.23879 28.8268 -2.5
      vertex 8.3147 30.5557 2.5
    endloop
  endfacet
  facet normal 0.773011 0.634393 0
    outer loop
      vertex 8.3147 30.5557 -2.5
      vertex 7.07107 32.0711 -2.5
      vertex 7.07107 32.0711 2.5
    endloop
  endfacet
  facet normal 0.773011 0.634393 -0
    outer loop
      vertex 8.3147 30.5557 2.5
      vertex 8.3147 30.5557 -2.5
      vertex 7.07107 32.0711 2.5
    endloop
  endfacet
  facet normal 0.634393 0.773011 0
    outer loop
      vertex 5.5557 33.3147 -2.5
      vertex 5.5557 33.3147 2.5
      vertex 7.07107 32.0711 -2.5
    endloop
  endfacet
  facet normal 0.634393 0.773011 0
    outer loop
      vertex 7.07107 32.0711 -2.5
      vertex 5.5557 33.3147 2.5
      vertex 7.07107 32.0711 2.5
    endloop
  endfacet
  facet normal 0.471397 0.881921 0
    outer loop
      vertex 3.82683 34.2388 -2.5
      vertex 3.82683 34.2388 2.5
      vertex 5.5557 33.3147 -2.5
    endloop
  endfacet
  facet normal 0.471397 0.881921 0
    outer loop
      vertex 5.5557 33.3147 -2.5
      vertex 3.82683 34.2388 2.5
      vertex 5.5557 33.3147 2.5
    endloop
  endfacet
  facet normal 0.290285 0.95694 0
    outer loop
      vertex 1.9509 34.8079 -2.5
      vertex 1.9509 34.8079 2.5
      vertex 3.82683 34.2388 -2.5
    endloop
  endfacet
  facet normal 0.290285 0.95694 0
    outer loop
      vertex 3.82683 34.2388 -2.5
      vertex 1.9509 34.8079 2.5
      vertex 3.82683 34.2388 2.5
    endloop
  endfacet
  facet normal 0.0980171 0.995185 0
    outer loop
      vertex 0 35 -2.5
      vertex 0 35 2.5
      vertex 1.9509 34.8079 -2.5
    endloop
  endfacet
  facet normal 0.0980171 0.995185 0
    outer loop
      vertex 1.9509 34.8079 -2.5
      vertex 0 35 2.5
      vertex 1.9509 34.8079 2.5
    endloop
  endfacet
  facet normal -0.0980171 0.995185 0
    outer loop
      vertex -1.9509 34.8079 -2.5
      vertex -1.9509 34.8079 2.5
      vertex 0 35 -2.5
    endloop
  endfacet
  facet normal -0.0980171 0.995185 0
    outer loop
      vertex 0 35 -2.5
      vertex -1.9509 34.8079 2.5
      vertex 0 35 2.5
    endloop
  endfacet
  facet normal -0.290285 0.95694 0
    outer loop
      vertex -3.82683 34.2388 -2.5
      vertex -3.82683 34.2388 2.5
      vertex -1.9509 34.8079 -2.5
    endloop
  endfacet
  facet normal -0.290285 0.95694 0
    outer loop
      vertex -1.9509 34.8079 -2.5
      vertex -3.82683 34.2388 2.5
      vertex -1.9509 34.8079 2.5
    endloop
  endfacet
  facet normal -0.471397 0.881921 0
    outer loop
      vertex -5.5557 33.3147 -2.5
      vertex -5.5557 33.3147 2.5
      vertex -3.82683 34.2388 -2.5
    endloop
  endfacet
  facet normal -0.471397 0.881921 0
    outer loop
      vertex -3.82683 34.2388 -2.5
      vertex -5.5557 33.3147 2.5
      vertex -3.82683 34.2388 2.5
    endloop
  endfacet
  facet normal -0.634393 0.773011 0
    outer loop
      vertex -7.07107 32.0711 -2.5
      vertex -7.07107 32.0711 2.5
      vertex -5.5557 33.3147 -2.5
    endloop
  endfacet
  facet normal -0.634393 0.773011 0
    outer loop
      vertex -5.5557 33.3147 -2.5
      vertex -7.07107 32.0711 2.5
      vertex -5.5557 33.3147 2.5
    endloop
  endfacet
  facet normal -0.773011 0.634393 0
    outer loop
      vertex -8.3147 30.5557 -2.5
      vertex -8.3147 30.5557 2.5
      vertex -7.07107 32.0711 -2.5
    endloop
  endfacet
  facet normal -0.773011 0.634393 0
    outer loop
      vertex -7.07107 32.0711 -2.5
      vertex -8.3147 30.5557 2.5
      vertex -7.07107 32.0711 2.5
    endloop
  endfacet
  facet normal -0.881921 0.471397 0
    outer loop
      vertex -9.23879 28.8268 -2.5
      vertex -9.23879 28.8268 2.5
      vertex -8.3147 30.5557 -2.5
    endloop
  endfacet
  facet normal -0.881921 0.471397 0
    outer loop
      vertex -8.3147 30.5557 -2.5
      vertex -9.23879 28.8268 2.5
      vertex -8.3147 30.5557 2.5
    endloop
  endfacet
  facet normal -0.95694 0.290285 0
    outer loop
      vertex -9.80785 26.9509 -2.5
      vertex -9.80785 26.9509 2.5
      vertex -9.23879 28.8268 -2.5
    endloop
  endfacet
  facet normal -0.95694 0.290285 0
    outer loop
      vertex -9.23879 28.8268 -2.5
      vertex -9.80785 26.9509 2.5
      vertex -9.23879 28.8268 2.5
    endloop
  endfacet
  facet normal 1 0 0
    outer loop
      vertex -4.6462 0.987581 -2.5
      vertex -4.6462 0.987581 2.5
      vertex -4.6462 -0.987581 2.5
    endloop
  endfacet
  facet normal 1 0 0
    outer loop
      vertex -4.6462 -0.987581 -2.5
      vertex -4.6462 0.987581 -2.5
      vertex -4.6462 -0.987581 2.5
    endloop
  endfacet
  facet normal 0.913545 -0.406737 0
    outer loop
      vertex -3.84283 2.79198 -2.5
      vertex -3.84283 2.79198 2.5
      vertex -4.6462 0.987581 2.5
    endloop
  endfacet
  facet normal 0.913545 -0.406737 0
    outer loop
      vertex -4.6462 0.987581 -2.5
      vertex -3.84283 2.79198 -2.5
      vertex -4.6462 0.987581 2.5
    endloop
  endfacet
  facet normal 0.669131 -0.743145 0
    outer loop
      vertex -2.375 4.11362 -2.5
      vertex -2.375 4.11362 2.5
      vertex -3.84283 2.79198 2.5
    endloop
  endfacet
  facet normal 0.669131 -0.743145 0
    outer loop
      vertex -3.84283 2.79198 -2.5
      vertex -2.375 4.11362 -2.5
      vertex -3.84283 2.79198 2.5
    endloop
  endfacet
  facet normal 0.309017 -0.951057 0
    outer loop
      vertex -0.49651 4.72398 -2.5
      vertex -0.49651 4.72398 2.5
      vertex -2.375 4.11362 2.5
    endloop
  endfacet
  facet normal 0.309017 -0.951057 0
    outer loop
      vertex -2.375 4.11362 -2.5
      vertex -0.49651 4.72398 -2.5
      vertex -2.375 4.11362 2.5
    endloop
  endfacet
  facet normal -0.104529 -0.994522 -0
    outer loop
      vertex 1.46783 4.51752 -2.5
      vertex 1.46783 4.51752 2.5
      vertex -0.49651 4.72398 2.5
    endloop
  endfacet
  facet normal -0.104529 -0.994522 -0
    outer loop
      vertex -0.49651 4.72398 -2.5
      vertex 1.46783 4.51752 -2.5
      vertex -0.49651 4.72398 2.5
    endloop
  endfacet
  facet normal -0.5 -0.866025 -0
    outer loop
      vertex 3.17837 3.52994 -2.5
      vertex 3.17837 3.52994 2.5
      vertex 1.46783 4.51752 2.5
    endloop
  endfacet
  facet normal -0.5 -0.866025 -0
    outer loop
      vertex 1.46783 4.51752 -2.5
      vertex 3.17837 3.52994 -2.5
      vertex 1.46783 4.51752 2.5
    endloop
  endfacet
  facet normal -0.809017 -0.587785 0
    outer loop
      vertex 4.33934 1.932 2.5
      vertex 3.17837 3.52994 2.5
      vertex 4.33934 1.932 -2.5
    endloop
  endfacet
  facet normal -0.809017 -0.587785 0
    outer loop
      vertex 4.33934 1.932 -2.5
      vertex 3.17837 3.52994 2.5
      vertex 3.17837 3.52994 -2.5
    endloop
  endfacet
  facet normal -0.978148 -0.207912 0
    outer loop
      vertex 4.75 0 2.5
      vertex 4.33934 1.932 2.5
      vertex 4.75 0 -2.5
    endloop
  endfacet
  facet normal -0.978148 -0.207912 0
    outer loop
      vertex 4.75 0 -2.5
      vertex 4.33934 1.932 2.5
      vertex 4.33934 1.932 -2.5
    endloop
  endfacet
  facet normal -0.978148 0.207912 0
    outer loop
      vertex 4.75 0 2.5
      vertex 4.75 0 -2.5
      vertex 4.33934 -1.932 2.5
    endloop
  endfacet
  facet normal -0.978148 0.207912 0
    outer loop
      vertex 4.33934 -1.932 2.5
      vertex 4.75 0 -2.5
      vertex 4.33934 -1.932 -2.5
    endloop
  endfacet
  facet normal -0.809017 0.587785 0
    outer loop
      vertex 4.33934 -1.932 2.5
      vertex 4.33934 -1.932 -2.5
      vertex 3.17837 -3.52994 2.5
    endloop
  endfacet
  facet normal -0.809017 0.587785 0
    outer loop
      vertex 3.17837 -3.52994 2.5
      vertex 4.33934 -1.932 -2.5
      vertex 3.17837 -3.52994 -2.5
    endloop
  endfacet
  facet normal -0.5 0.866025 0
    outer loop
      vertex 3.17837 -3.52994 2.5
      vertex 3.17837 -3.52994 -2.5
      vertex 1.46783 -4.51752 2.5
    endloop
  endfacet
  facet normal -0.5 0.866025 0
    outer loop
      vertex 1.46783 -4.51752 2.5
      vertex 3.17837 -3.52994 -2.5
      vertex 1.46783 -4.51752 -2.5
    endloop
  endfacet
  facet normal -0.104529 0.994522 0
    outer loop
      vertex 1.46783 -4.51752 2.5
      vertex 1.46783 -4.51752 -2.5
      vertex -0.49651 -4.72398 2.5
    endloop
  endfacet
  facet normal -0.104529 0.994522 0
    outer loop
      vertex -0.49651 -4.72398 2.5
      vertex 1.46783 -4.51752 -2.5
      vertex -0.49651 -4.72398 -2.5
    endloop
  endfacet
  facet normal 0.309017 0.951057 -0
    outer loop
      vertex -0.49651 -4.72398 2.5
      vertex -0.49651 -4.72398 -2.5
      vertex -2.375 -4.11362 2.5
    endloop
  endfacet
  facet normal 0.309017 0.951057 -0
    outer loop
      vertex -2.375 -4.11362 2.5
      vertex -0.49651 -4.72398 -2.5
      vertex -2.375 -4.11362 -2.5
    endloop
  endfacet
  facet normal 0.669131 0.743145 -0
    outer loop
      vertex -2.375 -4.11362 2.5
      vertex -2.375 -4.11362 -2.5
      vertex -3.84283 -2.79198 2.5
    endloop
  endfacet
  facet normal 0.669131 0.743145 -0
    outer loop
      vertex -3.84283 -2.79198 2.5
      vertex -2.375 -4.11362 -2.5
      vertex -3.84283 -2.79198 -2.5
    endloop
  endfacet
  facet normal 0.913545 0.406737 0
    outer loop
      vertex -4.6462 -0.987581 2.5
      vertex -3.84283 -2.79198 2.5
      vertex -3.84283 -2.79198 -2.5
    endloop
  endfacet
  facet normal 0.913545 0.406737 0
    outer loop
      vertex -4.6462 -0.987581 -2.5
      vertex -4.6462 -0.987581 2.5
      vertex -3.84283 -2.79198 -2.5
    endloop
  endfacet
  facet normal 1 0 0
    outer loop
      vertex -1.80194 -24.1322 -2.5
      vertex -1.80194 -24.1322 1.5
      vertex -1.80194 -25.8678 1.5
    endloop
  endfacet
  facet normal 1 0 0
    outer loop
      vertex -1.80194 -25.8678 -2.5
      vertex -1.80194 -24.1322 -2.5
      vertex -1.80194 -25.8678 1.5
    endloop
  endfacet
  facet normal 0.62349 -0.781831 0
    outer loop
      vertex -0.445042 -23.0501 -2.5
      vertex -0.445042 -23.0501 1.5
      vertex -1.80194 -24.1322 1.5
    endloop
  endfacet
  facet normal 0.62349 -0.781831 0
    outer loop
      vertex -1.80194 -24.1322 -2.5
      vertex -0.445042 -23.0501 -2.5
      vertex -1.80194 -24.1322 1.5
    endloop
  endfacet
  facet normal -0.222521 -0.974928 -0
    outer loop
      vertex 1.24698 -23.4363 -2.5
      vertex 1.24698 -23.4363 1.5
      vertex -0.445042 -23.0501 1.5
    endloop
  endfacet
  facet normal -0.222521 -0.974928 -0
    outer loop
      vertex -0.445042 -23.0501 -2.5
      vertex 1.24698 -23.4363 -2.5
      vertex -0.445042 -23.0501 1.5
    endloop
  endfacet
  facet normal -0.900969 -0.433884 0
    outer loop
      vertex 2 -25 1.5
      vertex 1.24698 -23.4363 1.5
      vertex 2 -25 -2.5
    endloop
  endfacet
  facet normal -0.900969 -0.433884 0
    outer loop
      vertex 2 -25 -2.5
      vertex 1.24698 -23.4363 1.5
      vertex 1.24698 -23.4363 -2.5
    endloop
  endfacet
  facet normal -0.900969 0.433884 0
    outer loop
      vertex 2 -25 1.5
      vertex 2 -25 -2.5
      vertex 1.24698 -26.5637 1.5
    endloop
  endfacet
  facet normal -0.900969 0.433884 0
    outer loop
      vertex 1.24698 -26.5637 1.5
      vertex 2 -25 -2.5
      vertex 1.24698 -26.5637 -2.5
    endloop
  endfacet
  facet normal -0.222521 0.974928 0
    outer loop
      vertex 1.24698 -26.5637 1.5
      vertex 1.24698 -26.5637 -2.5
      vertex -0.445042 -26.9499 1.5
    endloop
  endfacet
  facet normal -0.222521 0.974928 0
    outer loop
      vertex -0.445042 -26.9499 1.5
      vertex 1.24698 -26.5637 -2.5
      vertex -0.445042 -26.9499 -2.5
    endloop
  endfacet
  facet normal 0.62349 0.781831 -0
    outer loop
      vertex -0.445042 -26.9499 1.5
      vertex -0.445042 -26.9499 -2.5
      vertex -1.80194 -25.8678 1.5
    endloop
  endfacet
  facet normal 0.62349 0.781831 -0
    outer loop
      vertex -1.80194 -25.8678 1.5
      vertex -0.445042 -26.9499 -2.5
      vertex -1.80194 -25.8678 -2.5
    endloop
  endfacet
  facet normal 1 0 0
    outer loop
      vertex -1.80194 25.8678 -2.5
      vertex -1.80194 25.8678 1.5
      vertex -1.80194 24.1322 1.5
    endloop
  endfacet
  facet normal 1 0 0
    outer loop
      vertex -1.80194 24.1322 -2.5
      vertex -1.80194 25.8678 -2.5
      vertex -1.80194 24.1322 1.5
    endloop
  endfacet
  facet normal 0.62349 -0.781831 0
    outer loop
      vertex -0.445042 26.9499 -2.5
      vertex -0.445042 26.9499 1.5
      vertex -1.80194 25.8678 1.5
    endloop
  endfacet
  facet normal 0.62349 -0.781831 0
    outer loop
      vertex -1.80194 25.8678 -2.5
      vertex -0.445042 26.9499 -2.5
      vertex -1.80194 25.8678 1.5
    endloop
  endfacet
  facet normal -0.222521 -0.974928 -0
    outer loop
      vertex 1.24698 26.5637 -2.5
      vertex 1.24698 26.5637 1.5
      vertex -0.445042 26.9499 1.5
    endloop
  endfacet
  facet normal -0.222521 -0.974928 -0
    outer loop
      vertex -0.445042 26.9499 -2.5
      vertex 1.24698 26.5637 -2.5
      vertex -0.445042 26.9499 1.5
    endloop
  endfacet
  facet normal -0.900969 -0.433884 0
    outer loop
      vertex 2 25 1.5
      vertex 1.24698 26.5637 1.5
      vertex 2 25 -2.5
    endloop
  endfacet
  facet normal -0.900969 -0.433884 0
    outer loop
      vertex 2 25 -2.5
      vertex 1.24698 26.5637 1.5
      vertex 1.24698 26.5637 -2.5
    endloop
  endfacet
  facet normal -0.900969 0.433884 0
    outer loop
      vertex 2 25 1.5
      vertex 2 25 -2.5
      vertex 1.24698 23.4363 1.5
    endloop
  endfacet
  facet normal -0.900969 0.433884 0
    outer loop
      vertex 1.24698 23.4363 1.5
      vertex 2 25 -2.5
      vertex 1.24698 23.4363 -2.5
    endloop
  endfacet
  facet normal -0.222521 0.974928 0
    outer loop
      vertex 1.24698 23.4363 1.5
      vertex 1.24698 23.4363 -2.5
      vertex -0.445042 23.0501 1.5
    endloop
  endfacet
  facet normal -0.222521 0.974928 0
    outer loop
      vertex -0.445042 23.0501 1.5
      vertex 1.24698 23.4363 -2.5
      vertex -0.445042 23.0501 -2.5
    endloop
  endfacet
  facet normal 0.62349 0.781831 -0
    outer loop
      vertex -0.445042 23.0501 1.5
      vertex -0.445042 23.0501 -2.5
      vertex -1.80194 24.1322 1.5
    endloop
  endfacet
  facet normal 0.62349 0.781831 -0
    outer loop
      vertex -1.80194 24.1322 1.5
      vertex -0.445042 23.0501 -2.5
      vertex -1.80194 24.1322 -2.5
    endloop
  endfacet
  facet normal 0.980785 0.19509 0
    outer loop
      vertex -5 -25 2.5
      vertex -4.6194 -26.9134 2.5
      vertex -4.6194 -26.9134 1.5
    endloop
  endfacet
  facet normal 0.980785 0.19509 0
    outer loop
      vertex -5 -25 1.5
      vertex -5 -25 2.5
      vertex -4.6194 -26.9134 1.5
    endloop
  endfacet
  facet normal 0.83147 0.55557 0
    outer loop
      vertex -4.6194 -26.9134 2.5
      vertex -3.53553 -28.5355 2.5
      vertex -3.53553 -28.5355 1.5
    endloop
  endfacet
  facet normal 0.83147 0.55557 0
    outer loop
      vertex -4.6194 -26.9134 1.5
      vertex -4.6194 -26.9134 2.5
      vertex -3.53553 -28.5355 1.5
    endloop
  endfacet
  facet normal 0.55557 0.83147 -0
    outer loop
      vertex -1.91342 -29.6194 2.5
      vertex -1.91342 -29.6194 1.5
      vertex -3.53553 -28.5355 2.5
    endloop
  endfacet
  facet normal 0.55557 0.83147 -0
    outer loop
      vertex -3.53553 -28.5355 2.5
      vertex -1.91342 -29.6194 1.5
      vertex -3.53553 -28.5355 1.5
    endloop
  endfacet
  facet normal 0.19509 0.980785 -0
    outer loop
      vertex 0 -30 2.5
      vertex 0 -30 1.5
      vertex -1.91342 -29.6194 2.5
    endloop
  endfacet
  facet normal 0.19509 0.980785 -0
    outer loop
      vertex -1.91342 -29.6194 2.5
      vertex 0 -30 1.5
      vertex -1.91342 -29.6194 1.5
    endloop
  endfacet
  facet normal -0.19509 0.980785 0
    outer loop
      vertex 1.91342 -29.6194 2.5
      vertex 1.91342 -29.6194 1.5
      vertex 0 -30 2.5
    endloop
  endfacet
  facet normal -0.19509 0.980785 0
    outer loop
      vertex 0 -30 2.5
      vertex 1.91342 -29.6194 1.5
      vertex 0 -30 1.5
    endloop
  endfacet
  facet normal -0.55557 0.83147 0
    outer loop
      vertex 3.53553 -28.5355 2.5
      vertex 3.53553 -28.5355 1.5
      vertex 1.91342 -29.6194 2.5
    endloop
  endfacet
  facet normal -0.55557 0.83147 0
    outer loop
      vertex 1.91342 -29.6194 2.5
      vertex 3.53553 -28.5355 1.5
      vertex 1.91342 -29.6194 1.5
    endloop
  endfacet
  facet normal -0.83147 0.55557 0
    outer loop
      vertex 4.6194 -26.9134 2.5
      vertex 4.6194 -26.9134 1.5
      vertex 3.53553 -28.5355 2.5
    endloop
  endfacet
  facet normal -0.83147 0.55557 0
    outer loop
      vertex 3.53553 -28.5355 2.5
      vertex 4.6194 -26.9134 1.5
      vertex 3.53553 -28.5355 1.5
    endloop
  endfacet
  facet normal -0.980785 0.19509 0
    outer loop
      vertex 5 -25 2.5
      vertex 5 -25 1.5
      vertex 4.6194 -26.9134 2.5
    endloop
  endfacet
  facet normal -0.980785 0.19509 0
    outer loop
      vertex 4.6194 -26.9134 2.5
      vertex 5 -25 1.5
      vertex 4.6194 -26.9134 1.5
    endloop
  endfacet
  facet normal -0.980785 -0.19509 0
    outer loop
      vertex 5 -25 2.5
      vertex 4.6194 -23.0866 2.5
      vertex 5 -25 1.5
    endloop
  endfacet
  facet normal -0.980785 -0.19509 0
    outer loop
      vertex 5 -25 1.5
      vertex 4.6194 -23.0866 2.5
      vertex 4.6194 -23.0866 1.5
    endloop
  endfacet
  facet normal -0.83147 -0.55557 0
    outer loop
      vertex 4.6194 -23.0866 2.5
      vertex 3.53553 -21.4645 2.5
      vertex 4.6194 -23.0866 1.5
    endloop
  endfacet
  facet normal -0.83147 -0.55557 0
    outer loop
      vertex 4.6194 -23.0866 1.5
      vertex 3.53553 -21.4645 2.5
      vertex 3.53553 -21.4645 1.5
    endloop
  endfacet
  facet normal -0.55557 -0.83147 -0
    outer loop
      vertex 3.53553 -21.4645 1.5
      vertex 3.53553 -21.4645 2.5
      vertex 1.91342 -20.3806 2.5
    endloop
  endfacet
  facet normal -0.55557 -0.83147 -0
    outer loop
      vertex 1.91342 -20.3806 1.5
      vertex 3.53553 -21.4645 1.5
      vertex 1.91342 -20.3806 2.5
    endloop
  endfacet
  facet normal -0.19509 -0.980785 -0
    outer loop
      vertex 1.91342 -20.3806 1.5
      vertex 1.91342 -20.3806 2.5
      vertex 0 -20 2.5
    endloop
  endfacet
  facet normal -0.19509 -0.980785 -0
    outer loop
      vertex 0 -20 1.5
      vertex 1.91342 -20.3806 1.5
      vertex 0 -20 2.5
    endloop
  endfacet
  facet normal 0.19509 -0.980785 0
    outer loop
      vertex 0 -20 1.5
      vertex 0 -20 2.5
      vertex -1.91342 -20.3806 2.5
    endloop
  endfacet
  facet normal 0.19509 -0.980785 0
    outer loop
      vertex -1.91342 -20.3806 1.5
      vertex 0 -20 1.5
      vertex -1.91342 -20.3806 2.5
    endloop
  endfacet
  facet normal 0.55557 -0.83147 0
    outer loop
      vertex -1.91342 -20.3806 1.5
      vertex -1.91342 -20.3806 2.5
      vertex -3.53553 -21.4645 2.5
    endloop
  endfacet
  facet normal 0.55557 -0.83147 0
    outer loop
      vertex -3.53553 -21.4645 1.5
      vertex -1.91342 -20.3806 1.5
      vertex -3.53553 -21.4645 2.5
    endloop
  endfacet
  facet normal 0.83147 -0.55557 0
    outer loop
      vertex -3.53553 -21.4645 1.5
      vertex -3.53553 -21.4645 2.5
      vertex -4.6194 -23.0866 2.5
    endloop
  endfacet
  facet normal 0.83147 -0.55557 0
    outer loop
      vertex -4.6194 -23.0866 1.5
      vertex -3.53553 -21.4645 1.5
      vertex -4.6194 -23.0866 2.5
    endloop
  endfacet
  facet normal 0.980785 -0.19509 0
    outer loop
      vertex -4.6194 -23.0866 1.5
      vertex -4.6194 -23.0866 2.5
      vertex -5 -25 2.5
    endloop
  endfacet
  facet normal 0.980785 -0.19509 0
    outer loop
      vertex -5 -25 1.5
      vertex -4.6194 -23.0866 1.5
      vertex -5 -25 2.5
    endloop
  endfacet
  facet normal 0.980785 0.19509 0
    outer loop
      vertex -5 25 2.5
      vertex -4.6194 23.0866 2.5
      vertex -4.6194 23.0866 1.5
    endloop
  endfacet
  facet normal 0.980785 0.19509 0
    outer loop
      vertex -5 25 1.5
      vertex -5 25 2.5
      vertex -4.6194 23.0866 1.5
    endloop
  endfacet
  facet normal 0.83147 0.55557 0
    outer loop
      vertex -4.6194 23.0866 2.5
      vertex -3.53553 21.4645 2.5
      vertex -3.53553 21.4645 1.5
    endloop
  endfacet
  facet normal 0.83147 0.55557 0
    outer loop
      vertex -4.6194 23.0866 1.5
      vertex -4.6194 23.0866 2.5
      vertex -3.53553 21.4645 1.5
    endloop
  endfacet
  facet normal 0.55557 0.83147 -0
    outer loop
      vertex -1.91342 20.3806 2.5
      vertex -1.91342 20.3806 1.5
      vertex -3.53553 21.4645 2.5
    endloop
  endfacet
  facet normal 0.55557 0.83147 -0
    outer loop
      vertex -3.53553 21.4645 2.5
      vertex -1.91342 20.3806 1.5
      vertex -3.53553 21.4645 1.5
    endloop
  endfacet
  facet normal 0.19509 0.980785 -0
    outer loop
      vertex 0 20 2.5
      vertex 0 20 1.5
      vertex -1.91342 20.3806 2.5
    endloop
  endfacet
  facet normal 0.19509 0.980785 -0
    outer loop
      vertex -1.91342 20.3806 2.5
      vertex 0 20 1.5
      vertex -1.91342 20.3806 1.5
    endloop
  endfacet
  facet normal -0.19509 0.980785 0
    outer loop
      vertex 1.91342 20.3806 2.5
      vertex 1.91342 20.3806 1.5
      vertex 0 20 2.5
    endloop
  endfacet
  facet normal -0.19509 0.980785 0
    outer loop
      vertex 0 20 2.5
      vertex 1.91342 20.3806 1.5
      vertex 0 20 1.5
    endloop
  endfacet
  facet normal -0.55557 0.83147 0
    outer loop
      vertex 3.53553 21.4645 2.5
      vertex 3.53553 21.4645 1.5
      vertex 1.91342 20.3806 2.5
    endloop
  endfacet
  facet normal -0.55557 0.83147 0
    outer loop
      vertex 1.91342 20.3806 2.5
      vertex 3.53553 21.4645 1.5
      vertex 1.91342 20.3806 1.5
    endloop
  endfacet
  facet normal -0.83147 0.55557 0
    outer loop
      vertex 4.6194 23.0866 2.5
      vertex 4.6194 23.0866 1.5
      vertex 3.53553 21.4645 2.5
    endloop
  endfacet
  facet normal -0.83147 0.55557 0
    outer loop
      vertex 3.53553 21.4645 2.5
      vertex 4.6194 23.0866 1.5
      vertex 3.53553 21.4645 1.5
    endloop
  endfacet
  facet normal -0.980785 0.19509 0
    outer loop
      vertex 5 25 2.5
      vertex 5 25 1.5
      vertex 4.6194 23.0866 2.5
    endloop
  endfacet
  facet normal -0.980785 0.19509 0
    outer loop
      vertex 4.6194 23.0866 2.5
      vertex 5 25 1.5
      vertex 4.6194 23.0866 1.5
    endloop
  endfacet
  facet normal -0.980785 -0.19509 0
    outer loop
      vertex 5 25 2.5
      vertex 4.6194 26.9134 2.5
      vertex 5 25 1.5
    endloop
  endfacet
  facet normal -0.980785 -0.19509 0
    outer loop
      vertex 5 25 1.5
      vertex 4.6194 26.9134 2.5
      vertex 4.6194 26.9134 1.5
    endloop
  endfacet
  facet normal -0.83147 -0.55557 0
    outer loop
      vertex 4.6194 26.9134 2.5
      vertex 3.53553 28.5355 2.5
      vertex 4.6194 26.9134 1.5
    endloop
  endfacet
  facet normal -0.83147 -0.55557 0
    outer loop
      vertex 4.6194 26.9134 1.5
      vertex 3.53553 28.5355 2.5
      vertex 3.53553 28.5355 1.5
    endloop
  endfacet
  facet normal -0.55557 -0.83147 -0
    outer loop
      vertex 3.53553 28.5355 1.5
      vertex 3.53553 28.5355 2.5
      vertex 1.91342 29.6194 2.5
    endloop
  endfacet
  facet normal -0.55557 -0.83147 -0
    outer loop
      vertex 1.91342 29.6194 1.5
      vertex 3.53553 28.5355 1.5
      vertex 1.91342 29.6194 2.5
    endloop
  endfacet
  facet normal -0.19509 -0.980785 -0
    outer loop
      vertex 1.91342 29.6194 1.5
      vertex 1.91342 29.6194 2.5
      vertex 0 30 2.5
    endloop
  endfacet
  facet normal -0.19509 -0.980785 -0
    outer loop
      vertex 0 30 1.5
      vertex 1.91342 29.6194 1.5
      vertex 0 30 2.5
    endloop
  endfacet
  facet normal 0.19509 -0.980785 0
    outer loop
      vertex 0 30 1.5
      vertex 0 30 2.5
      vertex -1.91342 29.6194 2.5
    endloop
  endfacet
  facet normal 0.19509 -0.980785 0
    outer loop
      vertex -1.91342 29.6194 1.5
      vertex 0 30 1.5
      vertex -1.91342 29.6194 2.5
    endloop
  endfacet
  facet normal 0.55557 -0.83147 0
    outer loop
      vertex -1.91342 29.6194 1.5
      vertex -1.91342 29.6194 2.5
      vertex -3.53553 28.5355 2.5
    endloop
  endfacet
  facet normal 0.55557 -0.83147 0
    outer loop
      vertex -3.53553 28.5355 1.5
      vertex -1.91342 29.6194 1.5
      vertex -3.53553 28.5355 2.5
    endloop
  endfacet
  facet normal 0.83147 -0.55557 0
    outer loop
      vertex -3.53553 28.5355 1.5
      vertex -3.53553 28.5355 2.5
      vertex -4.6194 26.9134 2.5
    endloop
  endfacet
  facet normal 0.83147 -0.55557 0
    outer loop
      vertex -4.6194 26.9134 1.5
      vertex -3.53553 28.5355 1.5
      vertex -4.6194 26.9134 2.5
    endloop
  endfacet
  facet normal 0.980785 -0.19509 0
    outer loop
      vertex -4.6194 26.9134 1.5
      vertex -4.6194 26.9134 2.5
      vertex -5 25 2.5
    endloop
  endfacet
  facet normal 0.980785 -0.19509 0
    outer loop
      vertex -5 25 1.5
      vertex -4.6194 26.9134 1.5
      vertex -5 25 2.5
    endloop
  endfacet
  facet normal 0 0 1
    outer loop
      vertex -4.6194 -26.9134 1.5
      vertex -3.53553 -28.5355 1.5
      vertex -1.91342 -29.6194 1.5
    endloop
  endfacet
  facet normal -0 0 1
    outer loop
      vertex 1.91342 -29.6194 1.5
      vertex -4.6194 -26.9134 1.5
      vertex 0 -30 1.5
    endloop
  endfacet
  facet normal 0 0 1
    outer loop
      vertex 0 -30 1.5
      vertex -4.6194 -26.9134 1.5
      vertex -1.91342 -29.6194 1.5
    endloop
  endfacet
  facet normal -0 0 1
    outer loop
      vertex 3.53553 -28.5355 1.5
      vertex -4.6194 -26.9134 1.5
      vertex 1.91342 -29.6194 1.5
    endloop
  endfacet
  facet normal -0 -0 1
    outer loop
      vertex -0.445042 -26.9499 1.5
      vertex -4.6194 -26.9134 1.5
      vertex 3.53553 -28.5355 1.5
    endloop
  endfacet
  facet normal 0 -0 1
    outer loop
      vertex 1.24698 -26.5637 1.5
      vertex -0.445042 -26.9499 1.5
      vertex 4.6194 -26.9134 1.5
    endloop
  endfacet
  facet normal 0 0 1
    outer loop
      vertex 1.24698 -23.4363 1.5
      vertex 2 -25 1.5
      vertex 4.6194 -23.0866 1.5
    endloop
  endfacet
  facet normal 0 -0 1
    outer loop
      vertex 0 -20 1.5
      vertex -4.6194 -26.9134 1.5
      vertex 1.91342 -20.3806 1.5
    endloop
  endfacet
  facet normal 0 -0 1
    outer loop
      vertex -1.91342 -20.3806 1.5
      vertex -4.6194 -26.9134 1.5
      vertex 0 -20 1.5
    endloop
  endfacet
  facet normal 0 -0 1
    outer loop
      vertex -3.53553 -21.4645 1.5
      vertex -4.6194 -26.9134 1.5
      vertex -1.91342 -20.3806 1.5
    endloop
  endfacet
  facet normal 0 -0 1
    outer loop
      vertex -4.6194 -23.0866 1.5
      vertex -4.6194 -26.9134 1.5
      vertex -3.53553 -21.4645 1.5
    endloop
  endfacet
  facet normal 0 0 1
    outer loop
      vertex -5 -25 1.5
      vertex -4.6194 -26.9134 1.5
      vertex -4.6194 -23.0866 1.5
    endloop
  endfacet
  facet normal 0 0 1
    outer loop
      vertex 1.91342 -20.3806 1.5
      vertex -4.6194 -26.9134 1.5
      vertex -1.80194 -24.1322 1.5
    endloop
  endfacet
  facet normal 0 -0 1
    outer loop
      vertex 1.91342 -20.3806 1.5
      vertex -0.445042 -23.0501 1.5
      vertex 3.53553 -21.4645 1.5
    endloop
  endfacet
  facet normal 0 0 1
    outer loop
      vertex 1.91342 -20.3806 1.5
      vertex -1.80194 -24.1322 1.5
      vertex -0.445042 -23.0501 1.5
    endloop
  endfacet
  facet normal 0 -0 1
    outer loop
      vertex 3.53553 -21.4645 1.5
      vertex 1.24698 -23.4363 1.5
      vertex 4.6194 -23.0866 1.5
    endloop
  endfacet
  facet normal 0 0 1
    outer loop
      vertex -0.445042 -23.0501 1.5
      vertex 1.24698 -23.4363 1.5
      vertex 3.53553 -21.4645 1.5
    endloop
  endfacet
  facet normal 0 -0 1
    outer loop
      vertex 4.6194 -23.0866 1.5
      vertex 2 -25 1.5
      vertex 5 -25 1.5
    endloop
  endfacet
  facet normal 0 0 1
    outer loop
      vertex 5 -25 1.5
      vertex 1.24698 -26.5637 1.5
      vertex 4.6194 -26.9134 1.5
    endloop
  endfacet
  facet normal 0 0 1
    outer loop
      vertex 4.6194 -26.9134 1.5
      vertex -0.445042 -26.9499 1.5
      vertex 3.53553 -28.5355 1.5
    endloop
  endfacet
  facet normal 0 0 1
    outer loop
      vertex -0.445042 -26.9499 1.5
      vertex -1.80194 -25.8678 1.5
      vertex -4.6194 -26.9134 1.5
    endloop
  endfacet
  facet normal 0 -0 1
    outer loop
      vertex 2 -25 1.5
      vertex 1.24698 -26.5637 1.5
      vertex 5 -25 1.5
    endloop
  endfacet
  facet normal -0 0 1
    outer loop
      vertex -1.80194 -25.8678 1.5
      vertex -1.80194 -24.1322 1.5
      vertex -4.6194 -26.9134 1.5
    endloop
  endfacet
  facet normal 0 0 1
    outer loop
      vertex -4.6194 23.0866 1.5
      vertex -3.53553 21.4645 1.5
      vertex -1.91342 20.3806 1.5
    endloop
  endfacet
  facet normal -0 0 1
    outer loop
      vertex 1.91342 20.3806 1.5
      vertex -4.6194 23.0866 1.5
      vertex 0 20 1.5
    endloop
  endfacet
  facet normal 0 0 1
    outer loop
      vertex 0 20 1.5
      vertex -4.6194 23.0866 1.5
      vertex -1.91342 20.3806 1.5
    endloop
  endfacet
  facet normal -0 0 1
    outer loop
      vertex 3.53553 21.4645 1.5
      vertex -4.6194 23.0866 1.5
      vertex 1.91342 20.3806 1.5
    endloop
  endfacet
  facet normal -0 -0 1
    outer loop
      vertex -0.445042 23.0501 1.5
      vertex -4.6194 23.0866 1.5
      vertex 3.53553 21.4645 1.5
    endloop
  endfacet
  facet normal 0 -0 1
    outer loop
      vertex 1.24698 23.4363 1.5
      vertex -0.445042 23.0501 1.5
      vertex 4.6194 23.0866 1.5
    endloop
  endfacet
  facet normal 0 0 1
    outer loop
      vertex 1.24698 26.5637 1.5
      vertex 2 25 1.5
      vertex 4.6194 26.9134 1.5
    endloop
  endfacet
  facet normal 0 -0 1
    outer loop
      vertex 0 30 1.5
      vertex -4.6194 23.0866 1.5
      vertex 1.91342 29.6194 1.5
    endloop
  endfacet
  facet normal 0 -0 1
    outer loop
      vertex -1.91342 29.6194 1.5
      vertex -4.6194 23.0866 1.5
      vertex 0 30 1.5
    endloop
  endfacet
  facet normal 0 -0 1
    outer loop
      vertex -3.53553 28.5355 1.5
      vertex -4.6194 23.0866 1.5
      vertex -1.91342 29.6194 1.5
    endloop
  endfacet
  facet normal 0 -0 1
    outer loop
      vertex -4.6194 26.9134 1.5
      vertex -4.6194 23.0866 1.5
      vertex -3.53553 28.5355 1.5
    endloop
  endfacet
  facet normal 0 0 1
    outer loop
      vertex -5 25 1.5
      vertex -4.6194 23.0866 1.5
      vertex -4.6194 26.9134 1.5
    endloop
  endfacet
  facet normal 0 0 1
    outer loop
      vertex 1.91342 29.6194 1.5
      vertex -4.6194 23.0866 1.5
      vertex -1.80194 25.8678 1.5
    endloop
  endfacet
  facet normal 0 -0 1
    outer loop
      vertex 1.91342 29.6194 1.5
      vertex -0.445042 26.9499 1.5
      vertex 3.53553 28.5355 1.5
    endloop
  endfacet
  facet normal 0 0 1
    outer loop
      vertex 1.91342 29.6194 1.5
      vertex -1.80194 25.8678 1.5
      vertex -0.445042 26.9499 1.5
    endloop
  endfacet
  facet normal 0 -0 1
    outer loop
      vertex 3.53553 28.5355 1.5
      vertex 1.24698 26.5637 1.5
      vertex 4.6194 26.9134 1.5
    endloop
  endfacet
  facet normal 0 0 1
    outer loop
      vertex -0.445042 26.9499 1.5
      vertex 1.24698 26.5637 1.5
      vertex 3.53553 28.5355 1.5
    endloop
  endfacet
  facet normal 0 -0 1
    outer loop
      vertex 4.6194 26.9134 1.5
      vertex 2 25 1.5
      vertex 5 25 1.5
    endloop
  endfacet
  facet normal 0 0 1
    outer loop
      vertex 5 25 1.5
      vertex 1.24698 23.4363 1.5
      vertex 4.6194 23.0866 1.5
    endloop
  endfacet
  facet normal 0 0 1
    outer loop
      vertex 4.6194 23.0866 1.5
      vertex -0.445042 23.0501 1.5
      vertex 3.53553 21.4645 1.5
    endloop
  endfacet
  facet normal 0 0 1
    outer loop
      vertex -0.445042 23.0501 1.5
      vertex -1.80194 24.1322 1.5
      vertex -4.6194 23.0866 1.5
    endloop
  endfacet
  facet normal 0 -0 1
    outer loop
      vertex 2 25 1.5
      vertex 1.24698 23.4363 1.5
      vertex 5 25 1.5
    endloop
  endfacet
  facet normal -0 0 1
    outer loop
      vertex -1.80194 24.1322 1.5
      vertex -1.80194 25.8678 1.5
      vertex -4.6194 23.0866 1.5
    endloop
  endfacet
endsolid OpenSCAD_Model
